<svg width="30" height="30" viewBox="0 0 30 30" fill="none" xmlns="http://www.w3.org/2000/svg">
<path d="M28.7882 9.10082L25.2843 12.6047C24.5765 20.8102 17.6566 27.1875 9.37497 27.1875C7.6734 27.1875 6.27067 26.918 5.20544 26.386C4.34645 25.9559 3.99489 25.4954 3.907 25.3641C3.82863 25.2466 3.77783 25.1129 3.7584 24.9729C3.73898 24.833 3.75142 24.6905 3.7948 24.5561C3.83819 24.4216 3.91139 24.2987 4.00895 24.1966C4.1065 24.0944 4.22588 24.0156 4.35817 23.9661C4.38864 23.9543 7.1988 22.875 8.98356 20.8207C7.99378 20.007 7.12975 19.0513 6.4195 17.9848C4.96637 15.8274 3.33981 12.0797 3.84137 6.47934C3.85727 6.30138 3.92369 6.13168 4.0328 5.99021C4.14192 5.84873 4.28918 5.74138 4.45726 5.6808C4.62534 5.62022 4.80723 5.60893 4.98151 5.64825C5.15579 5.68758 5.31521 5.77589 5.44098 5.90278C5.482 5.94379 9.34098 9.78168 14.059 11.0262V10.3125C14.0572 9.56418 14.2051 8.82301 14.4941 8.1327C14.7831 7.44239 15.2073 6.81688 15.7418 6.29301C16.2608 5.77472 16.8784 5.36564 17.558 5.0899C18.2377 4.81416 18.9658 4.67735 19.6992 4.68754C20.683 4.69725 21.6476 4.96135 22.4992 5.45419C23.3508 5.94702 24.0604 6.65181 24.559 7.50004H28.125C28.3105 7.4999 28.4919 7.5548 28.6462 7.6578C28.8005 7.76081 28.9208 7.90728 28.9918 8.07868C29.0628 8.25007 29.0814 8.43869 29.0452 8.62064C29.0089 8.8026 28.9195 8.96971 28.7882 9.10082Z" fill="#A0AABB"/>
</svg>
