<svg width="29" height="21" viewBox="0 0 29 21" fill="none" xmlns="http://www.w3.org/2000/svg">
<path d="M6.69246 11.9105C6.6957 11.9751 6.68575 12.0397 6.66323 12.1004C6.6407 12.1611 6.60607 12.2165 6.56143 12.2634C6.5168 12.3103 6.4631 12.3476 6.4036 12.373C6.3441 12.3985 6.28004 12.4116 6.21532 12.4115H0.952435C0.737047 12.4118 0.527883 12.3393 0.358957 12.2056C0.19003 12.072 0.0712762 11.8852 0.0220065 11.6755C-0.0086727 11.532 -0.0072584 11.3835 0.0261481 11.2405C0.0595546 11.0976 0.124128 10.9639 0.215249 10.8488C1.05718 9.73231 2.17427 8.85318 3.45743 8.29732C2.89408 7.78368 2.462 7.14253 2.19739 6.42756C1.93278 5.7126 1.84334 4.94463 1.93656 4.18799C2.02978 3.43135 2.30294 2.70806 2.73318 2.0787C3.16341 1.44934 3.73819 0.932233 4.40937 0.570689C5.08055 0.209145 5.82859 0.0136897 6.59084 0.000693476C7.35309 -0.0123027 8.10736 0.157538 8.79048 0.495992C9.47359 0.834446 10.0657 1.33166 10.5171 1.94599C10.9685 2.56031 11.2662 3.27387 11.3852 4.02689C11.4005 4.12816 11.3824 4.23167 11.3335 4.32167C11.2846 4.41168 11.2077 4.48325 11.1144 4.52551C9.79078 5.13742 8.66982 6.11516 7.88378 7.34337C7.09773 8.57158 6.6794 9.999 6.67815 11.4572C6.67815 11.6099 6.67815 11.7602 6.69246 11.9105ZM28.4025 10.8477C27.5625 9.73241 26.4479 8.85376 25.1674 8.29732C25.7308 7.78368 26.1629 7.14253 26.4275 6.42756C26.6921 5.7126 26.7815 4.94463 26.6883 4.18799C26.5951 3.43135 26.3219 2.70806 25.8917 2.0787C25.4615 1.44934 24.8867 0.932233 24.2155 0.570689C23.5443 0.209145 22.7963 0.0136897 22.034 0.000693476C21.2718 -0.0123027 20.5175 0.157538 19.8344 0.495992C19.1513 0.834446 18.5592 1.33166 18.1078 1.94599C17.6563 2.56031 17.3587 3.27387 17.2397 4.02689C17.2243 4.12816 17.2425 4.23167 17.2914 4.32167C17.3402 4.41168 17.4172 4.48325 17.5105 4.52551C18.8341 5.13742 19.955 6.11516 20.7411 7.34337C21.5271 8.57158 21.9455 9.999 21.9467 11.4572C21.9467 11.6099 21.9467 11.7602 21.9324 11.9105C21.9292 11.9751 21.9391 12.0397 21.9616 12.1004C21.9842 12.1611 22.0188 12.2165 22.0634 12.2634C22.1081 12.3103 22.1618 12.3476 22.2213 12.373C22.2808 12.3985 22.3448 12.4116 22.4095 12.4115H27.6724C27.8878 12.4118 28.097 12.3393 28.2659 12.2056C28.4348 12.072 28.5536 11.8852 28.6029 11.6755C28.6337 11.5317 28.6323 11.3829 28.5987 11.2397C28.5651 11.0966 28.5001 10.9627 28.4084 10.8477H28.4025ZM17.786 15.9984C18.7362 15.2707 19.4345 14.2636 19.7827 13.1186C20.1309 11.9735 20.1116 10.7482 19.7274 9.6147C19.3432 8.48123 18.6135 7.49663 17.6409 6.79929C16.6682 6.10195 15.5015 5.72693 14.3047 5.72693C13.1079 5.72693 11.9412 6.10195 10.9685 6.79929C9.99584 7.49663 9.26614 8.48123 8.88197 9.6147C8.4978 10.7482 8.47846 11.9735 8.82668 13.1186C9.17489 14.2636 9.87316 15.2707 10.8233 15.9984C9.13727 16.729 7.72937 17.9801 6.80578 19.5686C6.72202 19.7137 6.67793 19.8783 6.67793 20.0458C6.67794 20.2134 6.72206 20.3779 6.80584 20.523C6.88962 20.6681 7.01012 20.7885 7.15522 20.8723C7.30032 20.956 7.4649 21.0001 7.63243 21.0001H20.9924C21.16 21.0001 21.3246 20.956 21.4697 20.8723C21.6148 20.7885 21.7352 20.6681 21.819 20.523C21.9028 20.3779 21.9469 20.2134 21.9469 20.0458C21.9469 19.8783 21.9028 19.7137 21.8191 19.5686C20.8935 17.979 19.483 16.7278 17.7944 15.9984H17.786Z" fill="#A0AABB"/>
</svg>
