<svg width="30" height="30" viewBox="0 0 30 30" fill="none" xmlns="http://www.w3.org/2000/svg">
<path d="M25.3125 12.1875V13.125C25.3105 14.7113 24.7347 16.2432 23.6913 17.438C22.6479 18.6329 21.2075 19.4098 19.6359 19.6254C20.2774 20.4463 20.6256 21.4582 20.625 22.5V27.1875C20.625 27.4362 20.5262 27.6746 20.3504 27.8504C20.1746 28.0262 19.9361 28.125 19.6875 28.125H12.1875C11.9389 28.125 11.7004 28.0262 11.5246 27.8504C11.3488 27.6746 11.25 27.4362 11.25 27.1875V25.3125H8.4375C7.1943 25.3125 6.00201 24.8187 5.12294 23.9396C4.24386 23.0605 3.75 21.8682 3.75 20.625C3.75 19.8791 3.45368 19.1637 2.92624 18.6363C2.39879 18.1088 1.68342 17.8125 0.9375 17.8125C0.68886 17.8125 0.450403 17.7137 0.274587 17.5379C0.0987721 17.3621 0 17.1237 0 16.875C0 16.6264 0.0987721 16.3879 0.274587 16.2121C0.450403 16.0363 0.68886 15.9375 0.9375 15.9375C1.55307 15.9375 2.16261 16.0588 2.73133 16.2943C3.30004 16.5299 3.81679 16.8752 4.25206 17.3105C4.68734 17.7457 5.03262 18.2625 5.26819 18.8312C5.50375 19.3999 5.625 20.0094 5.625 20.625C5.625 21.3709 5.92132 22.0863 6.44876 22.6138C6.97621 23.1412 7.69158 23.4375 8.4375 23.4375H11.25V22.5C11.2494 21.4582 11.5976 20.4463 12.2391 19.6254C10.6675 19.4098 9.22708 18.6329 8.1837 17.438C7.14032 16.2432 6.56447 14.7113 6.5625 13.125V12.1875C6.57417 11.0224 6.88445 9.87976 7.46367 8.86876C7.17712 7.94439 7.0852 6.97066 7.19371 6.00898C7.30222 5.04731 7.60881 4.11855 8.09414 3.28127C8.17644 3.13872 8.29482 3.02035 8.43738 2.93806C8.57994 2.85578 8.74165 2.81248 8.90625 2.81252C9.99822 2.81023 11.0756 3.06337 12.0523 3.55172C13.029 4.04006 13.8779 4.75007 14.5312 5.62502H17.3438C17.9971 4.75007 18.846 4.04006 19.8227 3.55172C20.7994 3.06337 21.8768 2.81023 22.9688 2.81252C23.1334 2.81248 23.2951 2.85578 23.4376 2.93806C23.5802 3.02035 23.6986 3.13872 23.7809 3.28127C24.2663 4.11853 24.5728 5.04734 24.6811 6.00906C24.7894 6.97078 24.6972 7.94451 24.4102 8.86876C24.9905 9.87937 25.3012 11.0222 25.3125 12.1875Z" fill="#A0AABB"/>
</svg>
