<svg width="30" height="30" viewBox="0 0 30 30" fill="none" xmlns="http://www.w3.org/2000/svg">
<path d="M15 2.8125C12.5895 2.8125 10.2332 3.52728 8.22899 4.86646C6.22477 6.20564 4.66267 8.10907 3.74022 10.336C2.81778 12.563 2.57643 15.0135 3.04668 17.3777C3.51694 19.7418 4.67769 21.9134 6.38214 23.6179C8.08659 25.3223 10.2582 26.4831 12.6223 26.9533C14.9865 27.4236 17.437 27.1822 19.664 26.2598C21.8909 25.3373 23.7944 23.7752 25.1335 21.771C26.4727 19.7668 27.1875 17.4105 27.1875 15C27.1838 11.7688 25.8986 8.67104 23.6138 6.38625C21.329 4.10145 18.2312 2.81622 15 2.8125ZM24.1828 10.3125H20.0051C19.479 8.38231 18.5923 6.56915 17.3918 4.96875C18.8422 5.31718 20.2002 5.97513 21.3726 6.89749C22.5449 7.81985 23.504 8.9848 24.184 10.3125H24.1828ZM25.3125 15C25.3133 15.951 25.182 16.8976 24.9223 17.8125H20.4094C20.6969 15.9485 20.6969 14.0515 20.4094 12.1875H24.9223C25.182 13.1024 25.3133 14.049 25.3125 15ZM15 5.03906C16.4038 6.54202 17.4459 8.34567 18.0469 10.3125H11.9531C12.5535 8.3454 13.5957 6.54162 15 5.03906ZM11.9531 19.6875H18.0469C17.4465 21.6546 16.4044 23.4584 15 24.9609C13.5962 23.458 12.5541 21.6543 11.9531 19.6875ZM11.4961 17.8125C11.1742 15.9513 11.1742 14.0487 11.4961 12.1875H18.5133C18.8352 14.0487 18.8352 15.9513 18.5133 17.8125H11.4961ZM17.3965 25.0312C18.597 23.4309 19.4837 21.6177 20.0098 19.6875H24.1887C23.5082 21.0157 22.5484 22.181 21.3752 23.1034C20.202 24.0258 18.8431 24.6834 17.3918 25.0312H17.3965Z" fill="#A0AABB"/>
</svg>
