<svg width="27" height="27" viewBox="0 0 27 27" fill="none" xmlns="http://www.w3.org/2000/svg">
<g clip-path="url(#clip0_3_692)">
<path d="M13.503 12.3929C17.958 8.34293 20.253 6.26393 20.253 3.6309C20.253 1.6059 18.566 -6.21947e-05 16.541 -6.21947e-05C15.38 -6.21947e-05 14.273 0.485938 13.503 1.34994C12.7329 0.485938 11.6259 -6.21947e-05 10.385 -6.21947e-05C8.36002 -6.21947e-05 6.75298 1.68798 6.75298 3.71298C6.75298 6.26393 9.04798 8.34293 13.503 12.3929ZM12.396 13.4999C8.34598 9.04493 6.26698 6.74993 3.63394 6.74993C1.60894 6.74993 0.00298535 8.43797 0.00298535 10.463C0.00298535 11.6229 0.488985 12.7299 1.35298 13.4999C0.488985 14.27 0.00298535 15.377 0.00298535 16.619C0.00298535 18.644 1.69102 20.2499 3.71602 20.2499C6.26698 20.2499 8.34598 17.9549 12.396 13.4999ZM14.624 13.4999C18.66 17.9549 20.739 20.2499 23.372 20.2499C25.397 20.2499 27.003 18.563 27.003 16.538C27.003 15.377 26.517 14.27 25.653 13.4999C26.517 12.7299 27.003 11.6229 27.003 10.382C27.003 8.35697 25.316 6.74993 23.291 6.74993C20.739 6.74993 18.66 9.04493 14.624 13.4999ZM13.503 14.6069C9.04798 18.6569 6.75298 20.7359 6.75298 23.3679C6.75298 25.3929 8.44102 26.9999 10.466 26.9999C11.6259 26.9999 12.7329 26.5139 13.503 25.6499C14.273 26.5139 15.38 26.9999 16.622 26.9999C18.647 26.9999 20.253 25.3119 20.253 23.2869C20.253 20.7359 17.958 18.6569 13.503 14.6069Z" fill="#814FFF" fill-opacity="0.15"/>
</g>
<defs>
<clipPath id="clip0_3_692">
<rect width="26.4966" height="26.4966" fill="white" transform="scale(1.019)"/>
</clipPath>
</defs>
</svg>
