<svg width="20" height="20" viewBox="0 0 20 20" fill="none" xmlns="http://www.w3.org/2000/svg">
<path d="M13.75 16.1906C14.1812 16.0208 14.599 15.8189 15 15.5867V18.75C15 18.9158 14.9342 19.0748 14.817 19.192C14.6998 19.3092 14.5408 19.375 14.375 19.375C14.2093 19.375 14.0503 19.3092 13.9331 19.192C13.8159 19.0748 13.75 18.9158 13.75 18.75V16.1906ZM14.6688 9.28205L10.2938 6.94846C10.1478 6.8739 9.97842 6.85967 9.82206 6.90882C9.6657 6.95798 9.53491 7.06659 9.45786 7.21126C9.38081 7.35593 9.36368 7.52507 9.41015 7.68225C9.45662 7.83943 9.56297 7.97207 9.7063 8.05158L13.3594 10L14.6875 9.29221L14.6688 9.28205ZM19.6688 6.94846L10.2938 1.94846C10.2034 1.90031 10.1025 1.87512 10 1.87512C9.8976 1.87512 9.79673 1.90031 9.7063 1.94846L0.331299 6.94846C0.231302 7.00175 0.147674 7.08122 0.0893613 7.17838C0.0310483 7.27553 0.000244141 7.38671 0.000244141 7.50002C0.000244141 7.61333 0.0310483 7.72451 0.0893613 7.82166C0.147674 7.91882 0.231302 7.99829 0.331299 8.05158L2.50005 9.20861V12.9914C2.4994 13.2984 2.61238 13.5948 2.81724 13.8235C3.84067 14.9633 6.13364 16.875 10 16.875C11.282 16.8856 12.5544 16.6534 13.75 16.1906V10.2086L13.3594 10L10 11.7914L3.42427 8.28127L1.95317 7.50002L10 3.20861L18.0469 7.50002L16.5797 8.28127H16.575L14.6875 9.29221C14.7826 9.34707 14.8615 9.42599 14.9163 9.52103C14.9712 9.61607 15.0001 9.72388 15 9.83361V15.5867C15.8151 15.1163 16.5515 14.5213 17.1829 13.8235C17.3877 13.5948 17.5007 13.2984 17.5 12.9914V9.20861L19.6688 8.05158C19.7688 7.99829 19.8524 7.91882 19.9107 7.82166C19.969 7.72451 19.9999 7.61333 19.9999 7.50002C19.9999 7.38671 19.969 7.27553 19.9107 7.17838C19.8524 7.08122 19.7688 7.00175 19.6688 6.94846Z" fill="#814FFF"/>
</svg>
