<svg width="29" height="21" viewBox="0 0 29 21" fill="none" xmlns="http://www.w3.org/2000/svg">
<path d="M28.3446 12.1319L24.5273 15.9493C24.4387 16.038 24.3334 16.1084 24.2176 16.1564C24.1017 16.2044 23.9775 16.2291 23.8521 16.2291C23.7267 16.2291 23.6025 16.2044 23.4866 16.1564C23.3708 16.1084 23.2655 16.038 23.1769 15.9493L21.2682 14.0406C21.0892 13.8615 20.9886 13.6186 20.9886 13.3654C20.9886 13.1122 21.0892 12.8693 21.2682 12.6902C21.4473 12.5111 21.6902 12.4105 21.9434 12.4105C22.1967 12.4105 22.4396 12.5111 22.6186 12.6902L23.8521 13.9249L26.9942 10.7816C27.1733 10.6025 27.4162 10.5019 27.6694 10.5019C27.9227 10.5019 28.1655 10.6025 28.3446 10.7816C28.5237 10.9606 28.6243 11.2035 28.6243 11.4567C28.6243 11.71 28.5237 11.9529 28.3446 12.1319ZM15.2631 14.9973C16.7591 14.0655 17.911 12.6719 18.5444 11.0271C19.1778 9.38243 19.2584 7.57616 18.7738 5.88161C18.2892 4.18705 17.266 2.69642 15.8588 1.63522C14.4516 0.574021 12.7371 0 10.9746 0C9.21212 0 7.4976 0.574021 6.09041 1.63522C4.68323 2.69642 3.65995 4.18705 3.17539 5.88161C2.69082 7.57616 2.77134 9.38243 3.40477 11.0271C4.03819 12.6719 5.19004 14.0655 6.68607 14.9973C4.22271 15.8037 2.00627 17.3104 0.22406 19.4314C0.107382 19.5701 0.0326098 19.7391 0.00848955 19.9187C-0.0156307 20.0984 0.0118986 20.2811 0.0878571 20.4457C0.163816 20.6103 0.285062 20.7498 0.437414 20.848C0.589765 20.9461 0.766921 20.9989 0.948159 21H20.9891C21.171 21.0002 21.3491 20.9485 21.5025 20.8508C21.6559 20.7532 21.7782 20.6137 21.855 20.4489C21.9319 20.2841 21.96 20.1008 21.9362 19.9205C21.9123 19.7402 21.8374 19.5705 21.7204 19.4314C19.937 17.3104 17.7205 15.8037 15.2631 14.9973Z" fill="#A0AABB"/>
</svg>
