<svg width="30" height="30" viewBox="0 0 30 30" fill="none" xmlns="http://www.w3.org/2000/svg">
<path d="M28.125 9.37482V23.4373C28.125 23.686 28.0262 23.9244 27.8504 24.1002C27.6746 24.276 27.4361 24.3748 27.1875 24.3748H18.75C18.0053 24.3748 17.291 24.6702 16.7637 25.1961C16.2365 25.722 15.9394 26.4356 15.9375 27.1803C15.9412 27.3717 15.8856 27.5596 15.7781 27.718C15.6707 27.8765 15.5167 27.9977 15.3375 28.0651C15.1952 28.1199 15.0417 28.1393 14.8903 28.1215C14.7388 28.1036 14.594 28.0491 14.4684 27.9626C14.3428 27.8761 14.2402 27.7603 14.1694 27.6252C14.0987 27.4901 14.062 27.3398 14.0625 27.1873C14.0625 26.4414 13.7662 25.726 13.2387 25.1986C12.7113 24.6711 11.9959 24.3748 11.25 24.3748H2.8125C2.56386 24.3748 2.3254 24.276 2.14959 24.1002C1.97377 23.9244 1.875 23.686 1.875 23.4373V9.37482C1.875 9.12618 1.97377 8.88772 2.14959 8.7119C2.3254 8.53609 2.56386 8.43732 2.8125 8.43732H10.3125C11.3071 8.43732 12.2609 8.8324 12.9642 9.53567C13.6674 10.2389 14.0625 11.1928 14.0625 12.1873V19.6557C14.0592 19.8976 14.1477 20.1318 14.3101 20.3112C14.4725 20.4905 14.6968 20.6018 14.9379 20.6225C15.0661 20.631 15.1947 20.613 15.3158 20.5698C15.4368 20.5265 15.5476 20.4588 15.6413 20.3708C15.7351 20.2829 15.8097 20.1767 15.8607 20.0587C15.9116 19.9407 15.9378 19.8135 15.9375 19.685V12.1873C15.9375 11.1928 16.3326 10.2389 17.0359 9.53567C17.7391 8.8324 18.6929 8.43732 19.6875 8.43732H27.1875C27.4361 8.43732 27.6746 8.53609 27.8504 8.7119C28.0262 8.88772 28.125 9.12618 28.125 9.37482ZM10.4074 6.56232H10.4297C11.2382 6.57838 12.0338 6.76889 12.7619 7.12081C13.49 7.47273 14.1335 7.97777 14.6484 8.60138C14.6924 8.65284 14.7471 8.69415 14.8086 8.72248C14.8701 8.75081 14.937 8.76548 15.0047 8.76548C15.0724 8.76548 15.1393 8.75081 15.2008 8.72248C15.2623 8.69415 15.3169 8.65284 15.3609 8.60138C15.8748 7.97896 16.5168 7.47462 17.2432 7.12275C17.9696 6.77087 18.7634 6.57972 19.5703 6.56232H19.5926C19.6729 6.56208 19.7519 6.54119 19.8218 6.50166C19.8918 6.46212 19.9504 6.40527 19.9921 6.33655C20.0337 6.26783 20.057 6.18956 20.0597 6.10925C20.0624 6.02894 20.0444 5.94929 20.0074 5.87794C19.5356 4.95595 18.8184 4.18213 17.9348 3.64175C17.0513 3.10138 16.0357 2.81543 15 2.81543C13.9643 2.81543 12.9487 3.10138 12.0652 3.64175C11.1816 4.18213 10.4644 4.95595 9.99258 5.87794C9.95561 5.94929 9.93761 6.02894 9.9403 6.10925C9.94299 6.18956 9.96628 6.26783 10.0079 6.33655C10.0496 6.40527 10.1082 6.46212 10.1782 6.50166C10.2481 6.54119 10.3271 6.56208 10.4074 6.56232Z" fill="#A0AABB"/>
</svg>
