<svg width="30" height="30" viewBox="0 0 30 30" fill="none" xmlns="http://www.w3.org/2000/svg">
<path d="M27.0608 24.8437C25.276 21.7582 22.5257 19.5457 19.3159 18.4969C20.9036 17.5517 22.1371 16.1115 22.8271 14.3974C23.517 12.6834 23.6253 10.7902 23.1351 9.00867C22.645 7.22714 21.5836 5.65577 20.1139 4.53585C18.6443 3.41593 16.8477 2.8094 15 2.8094C13.1522 2.8094 11.3556 3.41593 9.88596 4.53585C8.41631 5.65577 7.35492 7.22714 6.86478 9.00867C6.37465 10.7902 6.48286 12.6834 7.17281 14.3974C7.86275 16.1115 9.09628 17.5517 10.684 18.4969C7.47422 19.5445 4.72385 21.757 2.9391 24.8437C2.87365 24.9504 2.83024 25.0692 2.81143 25.1929C2.79261 25.3167 2.79878 25.443 2.82956 25.5643C2.86034 25.6857 2.91512 25.7996 2.99065 25.8995C3.06619 25.9993 3.16096 26.083 3.26936 26.1456C3.37777 26.2082 3.49762 26.2485 3.62184 26.264C3.74606 26.2796 3.87214 26.2701 3.99263 26.2361C4.11313 26.2022 4.2256 26.1444 4.32341 26.0663C4.42122 25.9881 4.5024 25.8912 4.56214 25.7812C6.76993 21.9656 10.6722 19.6875 15 19.6875C19.3277 19.6875 23.23 21.9656 25.4378 25.7812C25.4975 25.8912 25.5787 25.9881 25.6765 26.0663C25.7743 26.1444 25.8868 26.2022 26.0073 26.2361C26.1278 26.2701 26.2538 26.2796 26.3781 26.264C26.5023 26.2485 26.6221 26.2082 26.7305 26.1456C26.8389 26.083 26.9337 25.9993 27.0092 25.8995C27.0848 25.7996 27.1396 25.6857 27.1703 25.5643C27.2011 25.443 27.2073 25.3167 27.1885 25.1929C27.1697 25.0692 27.1263 24.9504 27.0608 24.8437ZM8.4375 11.25C8.4375 9.9521 8.82238 8.68332 9.54347 7.60413C10.2646 6.52494 11.2895 5.68381 12.4886 5.18712C13.6877 4.69042 15.0072 4.56046 16.2802 4.81367C17.5532 5.06689 18.7225 5.6919 19.6403 6.60968C20.5581 7.52745 21.1831 8.69677 21.4363 9.96976C21.6895 11.2428 21.5596 12.5622 21.0629 13.7614C20.5662 14.9605 19.725 15.9854 18.6459 16.7065C17.5667 17.4276 16.2979 17.8125 15 17.8125C13.2601 17.8106 11.5919 17.1186 10.3617 15.8883C9.13136 14.658 8.43936 12.9899 8.4375 11.25Z" fill="#A0AABB"/>
</svg>
