<svg width="27" height="23" viewBox="0 0 27 23" fill="none" xmlns="http://www.w3.org/2000/svg">
<path d="M24.9072 5.57179V1.91594C24.9072 1.4078 24.7054 0.920474 24.346 0.561165C23.9867 0.201857 23.4994 0 22.9913 0H1.91594C1.4078 0 0.920474 0.201857 0.561165 0.561165C0.201857 0.920474 0 1.4078 0 1.91594V17.2435C0 17.7516 0.201857 18.2389 0.561165 18.5982C0.920474 18.9575 1.4078 19.1594 1.91594 19.1594H16.2855V22.0333C16.284 22.2022 16.3271 22.3685 16.4106 22.5153C16.494 22.6621 16.6148 22.7843 16.7607 22.8694C16.9066 22.9545 17.0724 22.9995 17.2413 22.9999C17.4102 23.0003 17.5762 22.956 17.7224 22.8715L20.5963 21.2262L23.4703 22.8715C23.6165 22.956 23.7825 23.0003 23.9514 22.9999C24.1203 22.9995 24.2861 22.9545 24.432 22.8694C24.5779 22.7843 24.6987 22.6621 24.7821 22.5153C24.8656 22.3685 24.9087 22.2022 24.9072 22.0333V14.5456C25.5128 13.9657 25.9947 13.2692 26.3239 12.498C26.6532 11.7269 26.8229 10.8971 26.8229 10.0587C26.8229 9.22022 26.6532 8.39044 26.3239 7.61932C25.9947 6.8482 25.5128 6.1517 24.9072 5.57179ZM12.4536 12.4536H5.74782C5.49375 12.4536 5.25008 12.3527 5.07043 12.173C4.89078 11.9934 4.78985 11.7497 4.78985 11.4956C4.78985 11.2416 4.89078 10.9979 5.07043 10.8182C5.25008 10.6386 5.49375 10.5377 5.74782 10.5377H12.4536C12.7077 10.5377 12.9513 10.6386 13.131 10.8182C13.3106 10.9979 13.4116 11.2416 13.4116 11.4956C13.4116 11.7497 13.3106 11.9934 13.131 12.173C12.9513 12.3527 12.7077 12.4536 12.4536 12.4536ZM12.4536 8.62173H5.74782C5.49375 8.62173 5.25008 8.5208 5.07043 8.34114C4.89078 8.16149 4.78985 7.91783 4.78985 7.66376C4.78985 7.40969 4.89078 7.16602 5.07043 6.98637C5.25008 6.80672 5.49375 6.70579 5.74782 6.70579H12.4536C12.7077 6.70579 12.9513 6.80672 13.131 6.98637C13.3106 7.16602 13.4116 7.40969 13.4116 7.66376C13.4116 7.91783 13.3106 8.16149 13.131 8.34114C12.9513 8.5208 12.7077 8.62173 12.4536 8.62173ZM22.9913 20.382L21.0753 19.2851C20.9306 19.2024 20.7667 19.1588 20.5999 19.1588C20.4332 19.1588 20.2693 19.2024 20.1245 19.2851L18.2086 20.382V15.8065C18.9673 16.1235 19.7813 16.2867 20.6035 16.2867C21.4257 16.2867 22.2398 16.1235 22.9985 15.8065L22.9913 20.382ZM20.5963 14.3695C19.7437 14.3695 18.9103 14.1167 18.2014 13.643C17.4924 13.1693 16.9399 12.4961 16.6136 11.7084C16.2873 10.9207 16.202 10.0539 16.3683 9.21767C16.5346 8.38145 16.9452 7.61332 17.5481 7.01044C18.151 6.40755 18.9191 5.99698 19.7553 5.83065C20.5916 5.66431 21.4583 5.74968 22.246 6.07596C23.0337 6.40224 23.707 6.95478 24.1807 7.66369C24.6544 8.37261 24.9072 9.20607 24.9072 10.0587C24.9072 10.6248 24.7957 11.1854 24.5791 11.7084C24.3624 12.2314 24.0449 12.7066 23.6446 13.1069C23.2443 13.5072 22.7691 13.8248 22.246 14.0414C21.723 14.258 21.1625 14.3695 20.5963 14.3695Z" fill="#A0AABB"/>
</svg>
