<svg width="26" height="26" viewBox="0 0 26 26" fill="none" xmlns="http://www.w3.org/2000/svg">
<path d="M21.9375 2.43753H4.06253C3.63155 2.43753 3.21823 2.60873 2.91348 2.91348C2.60873 3.21823 2.43753 3.63155 2.43753 4.06253V21.9375C2.43753 22.3685 2.60873 22.7818 2.91348 23.0865C3.21823 23.3913 3.63155 23.5625 4.06253 23.5625H21.9375C22.3685 23.5625 22.7818 23.3913 23.0865 23.0865C23.3913 22.7818 23.5625 22.3685 23.5625 21.9375V4.06253C23.5625 3.63155 23.3913 3.21823 23.0865 2.91348C22.7818 2.60873 22.3685 2.43753 21.9375 2.43753ZM9.75001 17.875C9.75001 18.0905 9.66441 18.2971 9.51203 18.4495C9.35966 18.6019 9.153 18.6875 8.93751 18.6875C8.72202 18.6875 8.51536 18.6019 8.36299 18.4495C8.21062 18.2971 8.12501 18.0905 8.12501 17.875V11.375C8.12501 11.1595 8.21062 10.9529 8.36299 10.8005C8.51536 10.6481 8.72202 10.5625 8.93751 10.5625C9.153 10.5625 9.35966 10.6481 9.51203 10.8005C9.66441 10.9529 9.75001 11.1595 9.75001 11.375V17.875ZM8.93751 9.75001C8.69647 9.75001 8.46084 9.67853 8.26041 9.54461C8.05999 9.4107 7.90378 9.22035 7.81154 8.99766C7.71929 8.77496 7.69516 8.52991 7.74218 8.2935C7.78921 8.05708 7.90528 7.83992 8.07573 7.66948C8.24617 7.49903 8.46333 7.38296 8.69975 7.33593C8.93616 7.28891 9.18121 7.31304 9.40391 7.40529C9.6266 7.49753 9.81695 7.65374 9.95086 7.85416C10.0848 8.05459 10.1563 8.29022 10.1563 8.53126C10.1563 8.8545 10.0279 9.16449 9.7993 9.39305C9.57074 9.62161 9.26074 9.75001 8.93751 9.75001ZM18.6875 17.875C18.6875 18.0905 18.6019 18.2971 18.4495 18.4495C18.2971 18.6019 18.0905 18.6875 17.875 18.6875C17.6595 18.6875 17.4528 18.6019 17.3005 18.4495C17.1481 18.2971 17.0625 18.0905 17.0625 17.875V14.2187C17.0625 13.68 16.8485 13.1634 16.4676 12.7824C16.0866 12.4015 15.57 12.1875 15.0312 12.1875C14.4925 12.1875 13.9759 12.4015 13.5949 12.7824C13.214 13.1634 13 13.68 13 14.2187V17.875C13 18.0905 12.9144 18.2971 12.762 18.4495C12.6097 18.6019 12.403 18.6875 12.1875 18.6875C11.972 18.6875 11.7654 18.6019 11.613 18.4495C11.4606 18.2971 11.375 18.0905 11.375 17.875V11.375C11.376 11.176 11.45 10.9843 11.583 10.8362C11.716 10.6881 11.8987 10.594 12.0965 10.5717C12.2942 10.5494 12.4933 10.6005 12.6559 10.7153C12.8185 10.83 12.9334 11.0004 12.9787 11.1942C13.5283 10.8214 14.1691 10.6053 14.8323 10.5691C15.4955 10.533 16.156 10.6782 16.7429 10.9891C17.3298 11.3001 17.8209 11.765 18.1635 12.334C18.5061 12.903 18.6873 13.5546 18.6875 14.2187V17.875Z" fill="#A0AABB"/>
</svg>
