<svg width="18" height="14" viewBox="0 0 18 14" fill="none" xmlns="http://www.w3.org/2000/svg">
<path d="M17.6868 3.97091C17.5508 3.85092 17.3839 3.77492 17.2059 3.75192C17.0279 3.72892 16.8469 3.75992 16.6859 3.84092L12.9199 5.74387L9.77602 0.44599C9.69502 0.309993 9.58102 0.196996 9.44502 0.118997C9.30903 0.0409991 9.15503 0 8.99903 0C8.84204 0 8.68804 0.0409991 8.55204 0.118997C8.41605 0.196996 8.30205 0.309993 8.22105 0.44599L5.07712 5.74587L1.3122 3.84392C1.15221 3.76292 0.97221 3.73192 0.794214 3.75492C0.617217 3.77792 0.450221 3.85292 0.315224 3.97191C0.179227 4.08991 0.081229 4.24691 0.03323 4.4219C-0.0147689 4.5969 -0.010769 4.7819 0.0452298 4.95489L2.82017 13.5797C2.84817 13.6657 2.89417 13.7457 2.95717 13.8117C3.01917 13.8767 3.09516 13.9277 3.17916 13.9597C3.26316 13.9927 3.35316 14.0047 3.44216 13.9967C3.53215 13.9887 3.61915 13.9607 3.69615 13.9147C3.71515 13.9027 5.63211 12.7817 8.99903 12.7817C12.365 12.7817 14.2829 13.9027 14.2999 13.9137C14.3769 13.9607 14.4639 13.9887 14.5539 13.9977C14.6429 14.0057 14.7339 13.9927 14.8179 13.9607C14.9019 13.9287 14.9789 13.8777 15.0409 13.8117C15.1029 13.7457 15.1499 13.6667 15.1779 13.5797L17.9528 4.95689C18.0098 4.7839 18.0148 4.5979 17.9678 4.4229C17.9198 4.24691 17.8228 4.08991 17.6868 3.97091ZM12.587 10.1038C12.562 10.2448 12.49 10.3728 12.382 10.4648C12.274 10.5558 12.137 10.6068 11.996 10.6068C11.961 10.6068 11.926 10.6038 11.891 10.5978C9.97501 10.2638 8.01606 10.2638 6.1001 10.5978C6.0221 10.6118 5.9431 10.6098 5.8661 10.5928C5.7891 10.5758 5.71611 10.5428 5.65111 10.4968C5.52111 10.4048 5.43211 10.2628 5.40411 10.1038C5.37711 9.94478 5.41311 9.78079 5.50411 9.64879C5.59511 9.51679 5.73411 9.42679 5.8911 9.3988C7.94606 9.0408 10.045 9.0408 12.1 9.3988C12.178 9.41179 12.252 9.44079 12.319 9.48379C12.386 9.52679 12.444 9.58279 12.489 9.64779C12.535 9.71379 12.567 9.78779 12.584 9.86579C12.602 9.94378 12.603 10.0248 12.59 10.1038H12.587Z" fill="white"/>
</svg>
