<svg width="23" height="23" viewBox="0 0 23 23" fill="none" xmlns="http://www.w3.org/2000/svg">
<path d="M21.0604 10.3165L17.0175 13.8051L18.2492 19.0223C18.3172 19.3055 18.2997 19.6025 18.1989 19.8758C18.0982 20.1491 17.9187 20.3864 17.6832 20.5577C17.4476 20.729 17.1666 20.8267 16.8756 20.8384C16.5845 20.85 16.2966 20.7752 16.0481 20.6233L11.511 17.831L6.97119 20.6233C6.72271 20.7743 6.4351 20.8485 6.14458 20.8364C5.85406 20.8242 5.57361 20.7264 5.33856 20.5553C5.10351 20.3841 4.92436 20.1472 4.82367 19.8744C4.72298 19.6016 4.70526 19.3052 4.77273 19.0223L6.00897 13.8051L1.96602 10.3165C1.74617 10.1265 1.58717 9.87592 1.50888 9.59609C1.43059 9.31625 1.43648 9.01956 1.5258 8.74305C1.61513 8.46654 1.78394 8.22247 2.01115 8.04133C2.23836 7.86019 2.5139 7.75 2.80336 7.72452L8.10412 7.29687L10.1489 2.3483C10.2596 2.0786 10.448 1.84792 10.6901 1.68556C10.9323 1.5232 11.2172 1.43651 11.5087 1.43651C11.8002 1.43651 12.0852 1.5232 12.3273 1.68556C12.5694 1.84792 12.7578 2.0786 12.8685 2.3483L14.9124 7.29687L20.2132 7.72452C20.5032 7.74905 20.7796 7.85863 21.0076 8.03952C21.2356 8.22041 21.4052 8.46457 21.4951 8.74142C21.585 9.01826 21.5912 9.31548 21.5129 9.59582C21.4346 9.87617 21.2753 10.1272 21.055 10.3174L21.0604 10.3165Z" fill="#FFCC00"/>
</svg>
