<svg width="27" height="25" viewBox="0 0 27 25" fill="none" xmlns="http://www.w3.org/2000/svg">
<path d="M26.0199 19.5503C26.6855 18.1696 27.0122 16.6501 26.9727 15.1179C26.9332 13.5856 26.5287 12.085 25.7928 10.7404C25.0569 9.39592 24.0108 8.24639 22.7415 7.38732C21.4721 6.52826 20.0161 5.98445 18.4943 5.80107C17.9854 4.62752 17.2479 3.56706 16.3248 2.68157C15.4016 1.79608 14.3114 1.10328 13.1177 0.643594C11.924 0.183909 10.6507 -0.0334598 9.3721 0.0041698C8.0935 0.0417993 6.83519 0.333673 5.67058 0.862764C4.50597 1.39185 3.45839 2.14757 2.58894 3.08582C1.71949 4.02406 1.04559 5.12606 0.606555 6.32752C0.167518 7.52897 -0.0278669 8.80583 0.0318 10.0836C0.0914668 11.3614 0.404991 12.6145 0.95408 13.7698L0.0785721 16.7455C-0.0193171 17.0777 -0.0258625 17.4302 0.0596246 17.7658C0.145112 18.1014 0.319471 18.4077 0.564359 18.6526C0.809246 18.8975 1.11561 19.0719 1.45122 19.1574C1.78682 19.2429 2.13927 19.2363 2.47147 19.1384L5.44723 18.2629C6.40201 18.725 7.42734 19.0242 8.4808 19.1481C8.99212 20.3459 9.74102 21.4277 10.6822 22.3279C11.6234 23.2282 12.7374 23.9283 13.9568 24.3858C15.1762 24.8434 16.4757 25.049 17.7768 24.9901C19.0779 24.9313 20.3536 24.6092 21.5267 24.0434L24.5025 24.9189C24.8347 25.0168 25.1871 25.0234 25.5227 24.9379C25.8583 24.8524 26.1647 24.678 26.4096 24.4332C26.6545 24.1883 26.8288 23.8819 26.9143 23.5463C26.9998 23.2107 26.9933 22.8583 26.8954 22.526L26.0199 19.5503ZM13.9687 15.3642C13.6829 15.3642 13.4035 15.2795 13.1658 15.1207C12.9282 14.9619 12.7429 14.7362 12.6336 14.4721C12.5242 14.2081 12.4956 13.9175 12.5513 13.6372C12.6071 13.3568 12.7447 13.0993 12.9468 12.8972C13.1489 12.6951 13.4064 12.5575 13.6868 12.5017C13.9671 12.446 14.2576 12.4746 14.5217 12.584C14.7858 12.6933 15.0115 12.8786 15.1703 13.1162C15.3291 13.3539 15.4138 13.6333 15.4138 13.9191C15.4138 14.3024 15.2616 14.6699 14.9905 14.941C14.7195 15.212 14.352 15.3642 13.9687 15.3642ZM7.70645 15.3642C7.70712 15.9418 7.75951 16.5181 7.86301 17.0863C7.2131 16.934 6.58595 16.6971 5.99758 16.3818C5.77586 16.2632 5.51655 16.236 5.27502 16.306L1.92593 17.2911L2.90982 13.948C2.9798 13.7065 2.95257 13.4472 2.83395 13.2254C1.84687 11.4346 1.61162 9.32498 2.17996 7.36069C2.7483 5.3964 4.07367 3.73833 5.86451 2.75125C7.65535 1.76416 9.76496 1.52891 11.7293 2.09725C13.6935 2.66559 15.3516 3.99097 16.3387 5.78181C13.9711 6.03261 11.7798 7.14991 10.1863 8.91883C8.59279 10.6878 7.70955 12.9834 7.70645 15.3642ZM20.7126 15.3642C20.4268 15.3642 20.1474 15.2795 19.9098 15.1207C19.6721 14.9619 19.4869 14.7362 19.3775 14.4721C19.2681 14.2081 19.2395 13.9175 19.2953 13.6372C19.351 13.3568 19.4887 13.0993 19.6908 12.8972C19.8929 12.6951 20.1504 12.5575 20.4307 12.5017C20.711 12.446 21.0016 12.4746 21.2656 12.584C21.5297 12.6933 21.7554 12.8786 21.9142 13.1162C22.073 13.3539 22.1578 13.6333 22.1578 13.9191C22.1578 14.3024 22.0055 14.6699 21.7345 14.941C21.4635 15.212 21.0959 15.3642 20.7126 15.3642Z" fill="#A0AABB"/>
</svg>
