<svg width="129" height="30" viewBox="0 0 129 30" fill="none" xmlns="http://www.w3.org/2000/svg">
<path d="M1.62461 0.841736C1.62461 3.00265 1.62461 5.14525 1.64292 7.30617C1.64292 7.28785 1.66124 7.28785 1.66124 7.26954C1.62461 5.10863 1.62461 2.98434 1.62461 0.841736ZM1.67955 7.7823C1.73449 7.87386 1.78943 7.94712 1.84436 8.02037C1.78943 7.94712 1.73449 7.85555 1.67955 7.7823ZM21.256 1.28124C21.2193 1.22631 21.201 1.17137 21.1644 1.13474C21.1827 1.17137 21.2193 1.22631 21.2377 1.26293C21.7321 2.0687 22.2082 2.87446 22.6844 3.66191C22.2082 2.87446 21.7321 2.0687 21.256 1.28124ZM85.7354 15.2173C85.8087 15.3638 85.9552 15.4371 86.1933 15.4371H86.2299C85.9552 15.4371 85.8087 15.3638 85.7354 15.2173ZM120.2 3.66191C120.219 3.6436 120.219 3.60697 120.237 3.57035C120.237 3.60697 120.219 3.62529 120.2 3.66191ZM120.365 3.35059C120.383 3.31397 120.402 3.29566 120.402 3.29566C120.383 3.31397 120.383 3.33228 120.365 3.35059Z" fill="#231F20"/>
<path d="M64.9007 14.6329C64.3513 13.644 63.7653 12.6734 63.2159 11.7028C62.7214 10.8421 62.227 9.99975 61.7326 9.15736C62.1171 8.97423 62.4834 8.82773 62.8313 8.62629C63.692 8.15015 64.2231 7.43595 64.5161 6.48369C64.7725 5.62298 64.7908 4.76228 64.6443 3.88326C64.4978 3.09581 64.1682 2.34499 63.5455 1.81391C62.5566 0.934899 61.3663 0.55033 60.0478 0.532017C58.1616 0.513704 56.2753 0.532017 54.4074 0.532017C53.8764 0.532017 53.7848 0.641894 53.7848 1.17297V14.8526C53.7848 15.2555 53.9679 15.457 54.3708 15.457H55.3231C55.7626 15.457 55.9091 15.3105 55.9091 14.871C55.9091 13.2045 55.9091 11.538 55.9091 9.87156V9.48699C56.9712 9.48699 57.9967 9.5053 59.0223 9.46868C59.4068 9.46868 59.6449 9.54193 59.8463 9.94481C60.6338 11.4282 61.5494 12.8382 62.3186 14.3216C62.7398 15.1273 63.2342 15.6401 64.2048 15.457C64.278 15.4387 64.3513 15.457 64.4245 15.457C64.9556 15.4387 65.1754 15.109 64.9007 14.6329ZM55.9274 7.69233V2.38161C56.019 2.38161 56.1105 2.3633 56.2204 2.3633C57.3741 2.3633 58.5461 2.34499 59.6998 2.3633C60.4323 2.38161 61.1282 2.52812 61.7326 3.02256C61.7692 3.05919 61.8058 3.0775 61.8424 3.11413C61.8607 3.13244 61.8791 3.15075 61.8974 3.16906C61.9157 3.20569 61.9523 3.224 61.9706 3.26063C62.0439 3.35219 62.1171 3.44376 62.1721 3.55363C62.2087 3.60857 62.227 3.6452 62.2453 3.70014C62.3186 3.84664 62.3918 3.99314 62.4468 4.13964C62.4651 4.2129 62.4651 4.28615 62.4834 4.3594V4.37771C62.5017 4.45096 62.5017 4.52421 62.5017 4.59746C62.5749 5.31166 62.4834 5.98924 62.0256 6.61188C61.641 7.14295 61.0916 7.41764 60.5056 7.45427C58.9856 7.58246 57.4657 7.61908 55.9274 7.69233Z" fill="#231F20"/>
<path d="M10.8386 7.58151C12.6332 5.10928 14.4096 2.65536 16.2226 0.164815C13.1277 0.164815 10.1244 0.164815 7.12108 0.164815C7.0112 0.164815 6.84638 0.219753 6.79144 0.293005C5.82086 1.62984 4.85028 2.96668 3.89802 4.30352C3.71489 4.5599 3.53176 4.81627 3.34863 5.07265C2.79925 5.84179 2.24986 6.59262 1.70048 7.34345C1.68216 7.47164 1.66385 7.59983 1.66385 7.76464C1.66385 7.78295 1.68216 7.80127 1.70048 7.80127C1.75542 7.87452 1.81035 7.96608 1.86529 8.03933C1.92023 8.1309 1.99348 8.22246 2.04842 8.31403C2.17661 8.47884 2.28649 8.66197 2.41468 8.82678C3.7332 10.7496 5.05173 12.6908 6.37025 14.6136C6.49844 14.7785 6.60832 14.8151 6.79144 14.8151C9.81306 14.8151 12.853 14.8151 15.8746 14.8151C15.9845 14.8151 16.0761 14.7968 16.2409 14.7968C14.4096 12.3429 12.6149 9.94387 10.8386 7.58151ZM7.68877 13.0204C7.5789 13.0204 7.45071 12.9655 7.39577 12.8922C7.13939 12.526 6.88301 12.1597 6.62663 11.7752C5.85749 10.6581 5.10666 9.5593 4.33752 8.44222C4.19102 8.24077 3.95296 8.03933 3.82477 7.87452C3.76983 7.81958 3.75151 7.74633 3.7332 7.69139C3.7332 7.67308 3.7332 7.65476 3.7332 7.63645V7.61814C3.7332 7.58151 3.7332 7.5632 3.75151 7.52657C3.75151 7.50826 3.75151 7.48995 3.76983 7.48995C3.76983 7.47164 3.78814 7.43501 3.80645 7.4167C3.82477 7.39838 3.84308 7.36176 3.84308 7.34345C3.86139 7.32513 3.8797 7.28851 3.89802 7.27019C3.93464 7.21526 3.97127 7.17863 4.02621 7.12369C4.13608 6.9955 4.26427 6.88563 4.35584 6.75744C4.66716 6.35455 4.94185 5.95167 5.21654 5.54879C5.30811 5.4206 5.39967 5.29241 5.49123 5.14591C6.22375 4.1387 6.97457 3.13149 7.7254 2.12429C7.79865 2.03272 7.96347 1.92285 8.07334 1.92285C9.59331 1.90453 11.1316 1.92285 12.7065 1.92285C12.2853 2.50886 11.9007 3.03993 11.5162 3.58931C10.802 4.57821 10.0694 5.54879 9.35524 6.53768C9.31862 6.59262 9.28199 6.66587 9.24536 6.72081C9.0073 7.28851 8.97067 7.81958 9.22705 8.33234C9.75812 9.10148 10.3075 9.83399 10.8386 10.5665C11.1682 11.006 11.4795 11.4455 11.8092 11.885C12.0839 12.2513 12.3585 12.6175 12.6699 13.0204C10.9485 13.0204 9.31862 13.0204 7.68877 13.0204Z" fill="#F62B60"/>
<path d="M128.575 13.2574C128.154 14.0998 127.439 14.6308 126.597 15.0154C125.37 15.5831 124.088 15.693 122.788 15.638C121.396 15.5831 120.059 15.2535 118.961 14.3378C118.137 13.6603 117.55 12.7996 117.569 11.6458C117.569 11.2979 117.752 11.188 118.045 11.1697C118.43 11.1514 118.814 11.1148 119.18 11.188C119.363 11.2246 119.638 11.3895 119.693 11.5543C120.096 12.8179 120.993 13.4588 122.239 13.6419C123.282 13.8068 124.326 13.7884 125.352 13.4405C126.469 13.0559 127.11 11.8839 126.725 10.7851C126.615 10.4921 126.359 10.2174 126.084 10.0343C125.132 9.33843 123.997 9.10036 122.916 8.75242C121.598 8.33122 120.261 7.98328 119.144 7.12258C118.484 6.60982 118.118 5.89562 118.027 5.12648C117.935 4.32071 117.917 3.49663 118.32 2.7275C118.924 1.51885 119.949 0.877899 121.195 0.511643C122.147 0.23695 123.118 0.23695 124.088 0.310202C125.498 0.420079 126.762 0.969463 127.696 2.06823C128.19 2.65424 128.502 3.35013 128.556 4.13758C128.575 4.39396 128.355 4.61372 128.062 4.63203C127.677 4.65034 127.275 4.65034 126.89 4.63203C126.652 4.61372 126.432 4.52215 126.377 4.22915C126.066 2.94725 125.114 2.41618 123.905 2.21474C123.191 2.10486 122.495 2.17811 121.799 2.34293C121.708 2.36124 121.616 2.39786 121.524 2.43449C121.433 2.47112 121.36 2.48943 121.286 2.54437C121.213 2.58099 121.14 2.61762 121.048 2.67256C120.682 2.91062 120.407 3.22194 120.224 3.67976C120.224 3.67976 120.224 3.67976 120.224 3.69808C120.224 3.75301 120.206 3.82627 120.206 3.8812C120.169 4.13758 120.133 4.39396 120.169 4.63203C120.261 5.38286 120.755 5.85899 121.414 6.13368C122.348 6.51825 123.301 6.82957 124.253 7.14089C125.37 7.50715 126.524 7.78184 127.531 8.45941C128.355 9.02711 128.831 9.75962 128.959 10.7851C129.069 11.6458 128.959 12.4699 128.575 13.2574Z" fill="#231F20"/>
<path d="M80.1867 14.2853V14.8164C80.1867 15.3292 80.0585 15.439 79.5457 15.439H70.8471C70.3893 15.439 70.2428 15.3108 70.2428 14.8347V1.04514C70.2428 0.623945 70.3527 0.514067 70.7922 0.514067H79.4175C79.912 0.514067 80.0402 0.642257 80.0402 1.11839C80.0402 1.33814 80.0402 1.57621 80.0402 1.79597C80.0402 2.21716 79.8937 2.34535 79.4725 2.36366H72.3305V6.9785H78.9963C79.4541 6.9785 79.5457 7.08837 79.5457 7.5462V8.18714C79.5457 8.6999 79.3992 8.82809 78.8681 8.82809C77.1101 8.82809 75.3704 8.82809 73.6123 8.82809H72.2938V13.5162H79.3992C80.0768 13.5162 80.1867 13.6261 80.1867 14.2853Z" fill="#231F20"/>
<path d="M95.6087 14.2827V14.8138C95.6087 15.3082 95.4805 15.4364 95.0044 15.4364H86.1959C85.9578 15.4364 85.8113 15.3632 85.7381 15.2167C85.7197 15.18 85.7198 15.1617 85.7014 15.1251C85.6831 15.0702 85.6648 14.9786 85.6648 14.9053C85.6648 10.2722 85.6648 5.62073 85.6648 0.987585C85.6648 0.657954 85.8296 0.529764 86.1409 0.529764C89.071 0.529764 91.9827 0.529764 94.9128 0.529764C95.3157 0.529764 95.4622 0.676267 95.4622 1.07915C95.4622 1.33553 95.4622 1.59191 95.4622 1.8666C95.4622 2.25117 95.3157 2.37936 94.8945 2.39767H87.7525V7.01251H94.4183C94.8762 7.01251 94.9677 7.12238 94.9677 7.5802C94.9677 7.76333 94.9494 7.96477 94.9677 8.1479C95.0227 8.64235 94.8395 8.88042 94.2169 8.8621C92.2025 8.84379 90.1698 8.8621 88.137 8.8621H87.7342V13.5502H94.8212C95.4988 13.5136 95.6087 13.6234 95.6087 14.2827Z" fill="#231F20"/>
<path d="M112.435 10.4946C112.416 11.8863 111.995 13.1865 110.951 14.1938C110.182 14.9263 109.248 15.3658 108.186 15.5123C107.545 15.5855 106.886 15.6771 106.227 15.6405C104.853 15.5855 103.571 15.2376 102.528 14.2853C101.795 13.6261 101.374 12.747 101.136 11.7765C100.879 10.7876 100.916 9.78036 100.916 8.77315V1.15502C100.916 0.642257 101.026 0.514067 101.557 0.514067H102.509C102.93 0.514067 103.059 0.623945 103.059 1.04514C103.059 4.01182 103.04 6.96018 103.059 9.92686C103.059 10.9158 103.297 11.868 103.938 12.6372C104.359 13.1499 104.926 13.4429 105.586 13.6077C106.099 13.7176 106.611 13.7726 107.124 13.7176C107.252 13.6993 107.399 13.681 107.527 13.6627C107.618 13.6444 107.728 13.6261 107.838 13.5894C108.864 13.333 109.523 12.747 109.889 11.9596C110.017 11.7032 110.109 11.4102 110.164 11.0989C110.292 10.4762 110.31 9.81699 110.31 9.17604C110.329 6.52068 110.31 3.847 110.31 1.19164C110.31 0.587319 110.402 0.514067 111.006 0.514067H111.995C112.307 0.514067 112.435 0.66057 112.435 0.971888C112.453 4.14001 112.49 7.32644 112.435 10.4946Z" fill="#231F20"/>
<path d="M47.7023 10.5312C47.684 11.9046 47.2445 13.2049 46.2373 14.1938C45.4681 14.9446 44.5159 15.3841 43.4537 15.5123C42.8128 15.5855 42.1718 15.6588 41.5309 15.6405C40.1025 15.5855 38.784 15.201 37.7401 14.1938C37.0442 13.5345 36.623 12.6921 36.4582 11.7581C36.33 11.1172 36.2568 10.4396 36.2385 9.78036C36.2202 6.90525 36.2202 4.03013 36.2202 1.15502C36.2202 0.623944 36.33 0.514067 36.8428 0.514067H37.8317C38.2163 0.514067 38.3445 0.642257 38.3445 1.04514C38.3445 3.99351 38.3261 6.96018 38.3628 9.92686C38.3628 10.9158 38.5825 11.868 39.2418 12.6372C39.6813 13.1682 40.2673 13.4979 40.9449 13.6261C41.9521 13.8275 42.9227 13.8092 43.8566 13.3147C44.7906 12.8386 45.2484 12.0328 45.4681 11.0623C45.4865 11.0073 45.4865 10.9524 45.5048 10.8974C45.5414 10.7326 45.5597 10.5495 45.5963 10.3481C45.5963 8.80978 45.6147 7.2715 45.6147 5.75154C45.6147 4.21326 45.6147 2.69329 45.6147 1.15502C45.6147 0.605632 45.7062 0.514067 46.2739 0.514067C46.6035 0.514067 46.9332 0.514067 47.2628 0.514067C47.6108 0.514067 47.7389 0.66057 47.7389 1.00851C47.7206 4.17663 47.7756 7.36307 47.7023 10.5312Z" fill="#231F20"/>
<path d="M31.2938 1.2839C30.5613 2.52918 29.8105 3.75614 29.0963 4.9831C28.3271 6.28331 27.5763 7.58352 26.8255 8.88373C26.7705 8.99361 26.7156 9.08517 26.6423 9.17674C26.2578 9.65287 26.2028 10.2023 26.2028 10.8066C26.2395 12.1251 26.2211 13.4253 26.2211 14.7438C26.2211 15.2383 26.038 15.4214 25.5436 15.4214C25.2506 15.4214 24.9576 15.4214 24.6645 15.4214C24.225 15.4214 24.0236 15.22 24.0236 14.7805C24.0236 13.2788 24.0053 11.7955 24.0419 10.3121C24.0602 9.72612 23.7123 9.35987 23.4559 8.93867C22.7966 7.78496 22.1191 6.63125 21.4415 5.49586C20.8921 4.5619 20.3244 3.62795 19.775 2.67568C19.4637 2.14461 19.1707 1.59522 18.9143 1.04584C18.7861 0.734519 18.9876 0.533077 19.3172 0.514765C19.6468 0.514765 19.9765 0.55139 20.3061 0.514765C20.709 0.478139 20.947 0.661268 21.1119 0.990899C21.1302 1.04584 21.1668 1.08246 21.1851 1.1374C21.2217 1.19234 21.24 1.22897 21.2767 1.2839C21.7528 2.08967 22.2289 2.87712 22.7051 3.66457C23.5108 5.00141 24.2983 6.31993 25.1041 7.67508C25.4886 7.03413 25.8549 6.42981 26.2211 5.8438C27.21 4.17733 28.2172 2.51086 29.2244 0.862709C29.3343 0.697893 29.5907 0.588016 29.7921 0.55139C30.1218 0.496452 30.488 0.533078 30.8177 0.533078C31.3304 0.514765 31.5502 0.862709 31.2938 1.2839Z" fill="#231F20"/>
<path d="M1.66647 7.27019V7.32513C1.66647 7.47164 1.64816 7.59983 1.62984 7.74633C1.62984 10.0721 1.62984 12.3612 1.62984 14.6503C1.62984 15.0531 1.4284 15.3645 1.11708 15.4927C0.769139 15.6208 0.38457 15.511 0.146503 15.1813C0.0549391 15.0715 0 14.9066 0 14.7601C0 10.1087 0 5.45722 0 0.805765C0 0.347944 0.366257 0 0.824078 0C1.30021 0 1.62984 0.347944 1.62984 0.824078C1.62984 2.98499 1.62984 5.10928 1.66647 7.27019Z" fill="#FCB300"/>
<path d="M9.23027 8.36896C7.61874 8.40559 6.00721 8.40559 4.35906 8.40559C4.12099 8.14921 3.71811 7.87452 3.73642 7.63645C3.75473 7.32513 4.12099 7.05044 4.37737 6.75743C5.9889 6.75743 7.5638 6.75743 9.19365 6.75743C9.01052 7.28851 8.95558 7.81958 9.23027 8.36896Z" fill="#18BFFF"/>
<path d="M5.16357 27.5451H4.70574C4.61418 27.5451 4.55924 27.4902 4.54093 27.3803L4.19298 26.2083H1.44606L1.09812 27.3803C1.06149 27.4902 1.02486 27.5451 0.933301 27.5451H0.47548C0.383916 27.5451 0.34729 27.4902 0.365603 27.3803L2.2152 21.0624C2.25182 20.9708 2.30676 20.9159 2.39833 20.9159H3.24072C3.33228 20.9159 3.38722 20.9708 3.40553 21.0624L5.25513 27.3803C5.29176 27.4902 5.23682 27.5451 5.16357 27.5451ZM4.00986 25.5856L2.87446 21.7033H2.76458L1.62919 25.5856H4.00986Z" fill="black"/>
<path d="M11.6208 25.4391L12.5181 27.362C12.5731 27.4719 12.4998 27.5451 12.3899 27.5451H11.9687C11.8772 27.5451 11.8222 27.5085 11.7856 27.4352L10.9249 25.604C10.815 25.6223 10.7052 25.6223 10.577 25.6223H8.87387V27.4169C8.87387 27.5085 8.83725 27.5451 8.74568 27.5451H8.30618C8.21461 27.5451 8.17799 27.5085 8.17799 27.4169V21.0441C8.17799 20.9525 8.21461 20.9159 8.30618 20.9159H10.5953C11.9504 20.9159 12.5364 21.5385 12.5364 22.8021V23.736C12.5548 24.6151 12.2617 25.1828 11.6208 25.4391ZM11.8406 22.8021C11.8406 21.9048 11.456 21.5568 10.577 21.5568H8.89219V24.9447H10.577C11.456 24.9447 11.8406 24.5967 11.8406 23.6994V22.8021Z" fill="black"/>
<path d="M15.4063 27.5968C14.1061 27.5968 13.5384 26.9741 13.5384 25.9669V24.392C13.5384 23.3665 14.1427 22.7622 15.2232 22.7622H15.6627C16.7615 22.7622 17.3475 23.3482 17.3475 24.3737V25.1612C17.3475 25.3443 17.2376 25.4542 17.0362 25.4542H14.2343V25.9486C14.2343 26.553 14.5822 26.9741 15.4246 26.9741H15.5162C16.1755 26.9741 16.5417 26.8276 16.8164 26.6628C16.908 26.6079 16.9446 26.6262 16.9812 26.6995L17.1277 26.9192C17.1827 26.9741 17.1827 27.0291 17.146 27.0474C16.8713 27.3404 16.2853 27.5968 15.5162 27.5968H15.4063ZM16.6516 24.9231V24.3737C16.6516 23.7511 16.322 23.4031 15.6627 23.4031H15.2415C14.5822 23.4031 14.2526 23.7694 14.2526 24.392V24.9231H16.6516Z" fill="black"/>
<path d="M18.216 27.415V26.9755C18.216 26.9205 18.2343 26.8839 18.271 26.829L20.7249 23.4777V23.4228H18.4358C18.3442 23.4228 18.3076 23.3861 18.3076 23.2946V22.91C18.3076 22.8184 18.3442 22.7818 18.4358 22.7818H21.3475C21.4208 22.7818 21.4757 22.8184 21.4757 22.91V23.3861C21.4757 23.4228 21.4574 23.4777 21.4208 23.5143L18.9669 26.8473V26.9022H21.3292C21.4025 26.9022 21.4574 26.9388 21.4574 27.0304V27.415C21.4574 27.5065 21.4025 27.5432 21.3292 27.5432H18.3076C18.2527 27.5432 18.216 27.5065 18.216 27.415Z" fill="black"/>
<path d="M22.4934 21.4639V21.0244C22.4934 20.9329 22.53 20.8962 22.6216 20.8962H23.0794C23.171 20.8962 23.2076 20.9329 23.2076 21.0244V21.4639C23.2076 21.5555 23.171 21.5921 23.0794 21.5921H22.6216C22.53 21.5921 22.4934 21.5555 22.4934 21.4639ZM22.5117 27.4156V22.929C22.5117 22.8374 22.5483 22.8008 22.6216 22.8008H23.0794C23.171 22.8008 23.1893 22.8374 23.1893 22.929V27.4156C23.1893 27.5072 23.1527 27.5438 23.0794 27.5438H22.6216C22.53 27.5438 22.5117 27.5072 22.5117 27.4156Z" fill="black"/>
<path d="M24.4005 27.4156V21.0244C24.4005 20.9329 24.4372 20.8962 24.5287 20.8962H24.9682C25.0598 20.8962 25.0964 20.9329 25.0964 21.0244V27.4156C25.0964 27.5072 25.0598 27.5438 24.9682 27.5438H24.5287C24.4189 27.5438 24.4005 27.5072 24.4005 27.4156Z" fill="black"/>
<path d="M30.2281 22.946L27.9024 29.0808C27.8657 29.154 27.8474 29.2273 27.7558 29.2273H27.298C27.2065 29.2273 27.1698 29.154 27.2065 29.0808L27.7558 27.6341L25.9795 22.946C25.9429 22.8544 25.9612 22.7995 26.0711 22.7995H26.5472C26.6388 22.7995 26.6571 22.8544 26.6937 22.946L28.0855 26.7184H28.1404L29.5139 22.946C29.5505 22.8361 29.5871 22.7995 29.6787 22.7995H30.1548C30.2281 22.7995 30.2647 22.8544 30.2281 22.946Z" fill="black"/>
<path d="M32.7983 27.5987C31.4981 27.5987 30.9304 26.9761 30.9304 25.9689V24.394C30.9304 23.3685 31.5347 22.7642 32.6152 22.7642H33.0547C34.1534 22.7642 34.7394 23.3502 34.7394 24.3757V25.1631C34.7394 25.3463 34.6296 25.4561 34.4281 25.4561H31.6263V25.9506C31.6263 26.5549 31.9742 26.9761 32.8166 26.9761H32.9082C33.5674 26.9761 33.9337 26.8296 34.2084 26.6648C34.2999 26.6099 34.3366 26.6282 34.3732 26.7014L34.5197 26.9212C34.5746 26.9761 34.5746 27.031 34.538 27.0494C34.2633 27.3424 33.6773 27.5987 32.9082 27.5987H32.7983ZM34.0252 24.9251V24.3757C34.0252 23.7531 33.6956 23.4051 33.0363 23.4051H32.6152C31.9559 23.4051 31.6263 23.7714 31.6263 24.394V24.9251H34.0252Z" fill="black"/>
<path d="M35.8277 27.4156V22.929C35.8277 22.8374 35.8644 22.8008 35.9559 22.8008H36.3954C36.487 22.8008 36.5236 22.8374 36.5236 22.929V23.3319H36.6335C36.8716 22.9839 37.2928 22.7642 37.8605 22.7642H38.1352C39.2339 22.7642 39.6734 23.3135 39.6734 24.3757V27.4339C39.6734 27.5255 39.6368 27.5621 39.5636 27.5621H39.1057C39.0142 27.5621 38.9959 27.5255 38.9959 27.4339V24.4306C38.9959 23.7714 38.6845 23.4051 37.9887 23.4051H37.6224C36.9265 23.4051 36.5236 23.7714 36.5236 24.4123V27.4156C36.5236 27.5072 36.487 27.5438 36.3954 27.5438H35.9559C35.8644 27.5438 35.8277 27.5072 35.8277 27.4156Z" fill="black"/>
<path d="M40.7408 26.3888C40.7408 26.2972 40.7774 26.2423 40.869 26.2423H41.3085C41.4001 26.2423 41.4184 26.2972 41.4367 26.3705C41.4916 26.7917 41.7663 26.9931 42.3523 26.9931H42.7369C43.3229 26.9931 43.7075 26.7917 43.7075 26.2423C43.7075 25.6563 43.268 25.5647 42.5721 25.4915L42.3523 25.4732C41.3085 25.3633 40.7774 25.052 40.7774 24.118C40.7774 23.1657 41.4001 22.7995 42.3523 22.7995H42.7186C43.6526 22.7995 44.2752 23.239 44.2752 24.118C44.2752 24.2096 44.2386 24.2462 44.147 24.2462H43.7624C43.6526 24.2462 43.6159 24.2096 43.5976 24.0997C43.5427 23.6236 43.268 23.3855 42.682 23.3855H42.3707C41.7846 23.3855 41.455 23.5686 41.455 24.0997C41.455 24.6491 41.803 24.8139 42.4805 24.8871L42.7003 24.9055C43.7441 25.0153 44.3668 25.2534 44.3668 26.224C44.3668 27.2495 43.6892 27.5974 42.7186 27.5974H42.3157C41.3451 27.5974 40.7408 27.2129 40.7408 26.3888Z" fill="black"/>
<path d="M47.4119 25.6772V22.7838C47.4119 21.5385 48.0529 20.8609 49.3897 20.8609H50.0307C51.3858 20.8609 51.9901 21.5019 51.9901 22.7105V22.7472C51.9901 22.8204 51.9352 22.857 51.8803 22.857H51.3858C51.3126 22.857 51.2759 22.8204 51.2759 22.7472C51.2759 21.8498 50.8364 21.5019 49.994 21.5019H49.408C48.529 21.5019 48.1078 21.8865 48.1078 22.7655V25.6406C48.1078 26.5379 48.529 26.9225 49.408 26.9225H49.994C50.8364 26.9225 51.2759 26.5929 51.2759 25.7505C51.2759 25.6772 51.3126 25.6406 51.3858 25.6406H51.8803C51.9535 25.6406 51.9901 25.6955 51.9901 25.7505V25.8054C51.9901 26.9591 51.3858 27.5817 50.0307 27.5817H49.3897C48.0346 27.6001 47.4119 26.9225 47.4119 25.6772Z" fill="black"/>
<path d="M53.047 25.9872V24.3757C53.047 23.3685 53.6331 22.7642 54.7318 22.7642H55.208C56.3067 22.7642 56.8744 23.3502 56.8744 24.3757V25.9872C56.8744 27.0127 56.2884 27.5987 55.208 27.5987H54.7318C53.6331 27.5987 53.047 27.0127 53.047 25.9872ZM55.1896 26.9578C55.8489 26.9578 56.1969 26.6099 56.1969 25.9689V24.394C56.1969 23.753 55.8489 23.4051 55.1896 23.4051H54.7318C54.0726 23.4051 53.7429 23.753 53.7429 24.394V25.9689C53.7429 26.6099 54.0726 26.9578 54.7318 26.9578H55.1896Z" fill="black"/>
<path d="M64.6469 24.3744V27.4326C64.6469 27.5242 64.6103 27.5608 64.5187 27.5608H64.0792C63.9877 27.5608 63.951 27.5242 63.951 27.4326V24.4293C63.951 23.7701 63.6397 23.4038 62.9988 23.4038H62.7058C62.0648 23.4038 61.6802 23.7701 61.6802 24.411V27.4143C61.6802 27.5059 61.6436 27.5425 61.552 27.5425H61.1125C61.021 27.5425 60.9843 27.5059 60.9843 27.4143V24.411C60.9843 23.7517 60.673 23.3855 60.0321 23.3855H59.7391C59.0981 23.3855 58.7136 23.7517 58.7136 24.3927V27.396C58.7136 27.4876 58.6769 27.5242 58.5854 27.5242H58.1275C58.036 27.5242 57.9994 27.4876 57.9994 27.396V22.9094C57.9994 22.8178 58.036 22.7812 58.1275 22.7812H58.5671C58.6586 22.7812 58.6952 22.8178 58.6952 22.9094V23.3122H58.8051C59.0249 22.946 59.4644 22.7445 60.0321 22.7445H60.2152C60.8562 22.7445 61.2774 22.9643 61.4971 23.4221H61.5704C61.8267 22.9643 62.3212 22.7445 62.9804 22.7445H63.1636C64.1891 22.7628 64.6469 23.3122 64.6469 24.3744Z" fill="black"/>
<path d="M69.6751 24.3755V26.0053C69.6751 27.0492 69.1074 27.6168 68.0636 27.6168H67.7706C67.2029 27.6168 66.8183 27.3971 66.5985 27.0492H66.5436V29.1185C66.5436 29.2101 66.507 29.2467 66.4154 29.2467H65.9759C65.8843 29.2467 65.8477 29.2101 65.8477 29.1185V22.9471C65.8477 22.8555 65.8843 22.8189 65.9759 22.8189H66.4154C66.507 22.8189 66.5436 22.8555 66.5436 22.9471V23.3316H66.6168C66.8366 22.9837 67.2212 22.7823 67.7889 22.7823H68.0819C69.1257 22.7639 69.6751 23.3133 69.6751 24.3755ZM68.9975 24.4121C68.9975 23.7528 68.6496 23.4049 67.972 23.4049H67.5508C66.8915 23.4049 66.5436 23.7712 66.5436 24.4121V25.9504C66.5436 26.5913 66.8915 26.9576 67.5508 26.9576H67.972C68.6496 26.9576 68.9975 26.5913 68.9975 25.9321V24.4121Z" fill="black"/>
<path d="M74.439 24.3391V27.4339C74.439 27.5255 74.4024 27.5621 74.3109 27.5621H73.8713C73.7798 27.5621 73.7432 27.5255 73.7432 27.4339V26.8296H73.6516C73.322 27.2508 72.8275 27.5804 72.1133 27.5804H72.0584C71.0512 27.5804 70.6117 27.0677 70.6117 26.1887V25.9506C70.6117 25.0899 71.1427 24.7603 72.0767 24.7603H73.7615V24.3757C73.7615 23.7347 73.5234 23.3868 72.5345 23.3868C72.0584 23.3868 71.6006 23.4417 71.2892 23.5516C71.216 23.5699 71.161 23.5333 71.161 23.4784L71.0878 23.1121C71.0695 23.0388 71.1061 23.0022 71.161 22.9839C71.4541 22.874 71.9851 22.7642 72.6078 22.7642H72.7909C73.9446 22.7642 74.439 23.3319 74.439 24.3391ZM73.7432 25.8957V25.3096H72.1316C71.5822 25.3096 71.2709 25.4561 71.2709 26.0055V26.1703C71.2709 26.7564 71.5822 26.9761 72.1316 26.9761H72.4613C73.1938 26.9761 73.7432 26.4267 73.7432 25.8957Z" fill="black"/>
<path d="M75.6503 27.4156V22.929C75.6503 22.8374 75.6869 22.8008 75.7785 22.8008H76.218C76.3096 22.8008 76.3462 22.8374 76.3462 22.929V23.3319H76.4561C76.6941 22.9839 77.1153 22.7642 77.683 22.7642H77.9577C79.0565 22.7642 79.496 23.3135 79.496 24.3757V27.4339C79.496 27.5255 79.4594 27.5621 79.3861 27.5621H78.9283C78.8367 27.5621 78.8184 27.5255 78.8184 27.4339V24.4306C78.8184 23.7714 78.5071 23.4051 77.8112 23.4051H77.445C76.7491 23.4051 76.3462 23.7714 76.3462 24.4123V27.4156C76.3462 27.5072 76.3096 27.5438 76.218 27.5438H75.7785C75.6686 27.5438 75.6503 27.5072 75.6503 27.4156Z" fill="black"/>
<path d="M84.4681 22.946L82.1423 29.0808C82.1057 29.154 82.0874 29.2273 81.9958 29.2273H81.538C81.4465 29.2273 81.4098 29.154 81.4465 29.0808L81.9958 27.6341L80.2195 22.946C80.1829 22.8544 80.2012 22.7995 80.3111 22.7995H80.7872C80.8788 22.7995 80.8971 22.8544 80.9337 22.946L82.3255 26.7184H82.3804L83.7539 22.946C83.7905 22.8361 83.8271 22.7995 83.9187 22.7995H84.3948C84.4681 22.7995 84.5047 22.8544 84.4681 22.946Z" fill="black"/>
</svg>
