<svg width="30" height="30" viewBox="0 0 30 30" fill="none" xmlns="http://www.w3.org/2000/svg">
<path d="M25.3125 4.6875H4.6875C4.19022 4.6875 3.71331 4.88504 3.36167 5.23667C3.01004 5.58831 2.8125 6.06522 2.8125 6.5625V23.4375C2.8125 23.9348 3.01004 24.4117 3.36167 24.7633C3.71331 25.115 4.19022 25.3125 4.6875 25.3125H6.25664C6.43407 25.3126 6.60787 25.2623 6.75785 25.1675C6.90783 25.0727 7.02783 24.9372 7.10391 24.777C7.55979 23.8145 8.27954 23.0012 9.17947 22.4317C10.0794 21.8621 11.1225 21.5598 12.1875 21.5598C13.2525 21.5598 14.2956 21.8621 15.1955 22.4317C16.0955 23.0012 16.8152 23.8145 17.2711 24.777C17.3472 24.9372 17.4672 25.0727 17.6171 25.1675C17.7671 25.2623 17.9409 25.3126 18.1184 25.3125H25.3125C25.8098 25.3125 26.2867 25.115 26.6383 24.7633C26.99 24.4117 27.1875 23.9348 27.1875 23.4375V6.5625C27.1875 6.06522 26.99 5.58831 26.6383 5.23667C26.2867 4.88504 25.8098 4.6875 25.3125 4.6875ZM12.1875 19.6875C11.4458 19.6875 10.7208 19.4676 10.1041 19.0555C9.48743 18.6435 9.00678 18.0578 8.72295 17.3726C8.43912 16.6873 8.36486 15.9333 8.50955 15.2059C8.65425 14.4785 9.0114 13.8103 9.53585 13.2858C10.0603 12.7614 10.7285 12.4042 11.4559 12.2596C12.1833 12.1149 12.9373 12.1891 13.6226 12.473C14.3078 12.7568 14.8935 13.2374 15.3055 13.8541C15.7176 14.4708 15.9375 15.1958 15.9375 15.9375C15.9375 16.9321 15.5424 17.8859 14.8392 18.5891C14.1359 19.2924 13.1821 19.6875 12.1875 19.6875ZM25.3125 23.4375H18.6832C18.2745 22.7328 17.7536 22.0995 17.141 21.5625H22.5C22.7486 21.5625 22.9871 21.4637 23.1629 21.2879C23.3387 21.1121 23.4375 20.8736 23.4375 20.625V9.375C23.4375 9.12636 23.3387 8.8879 23.1629 8.71209C22.9871 8.53627 22.7486 8.4375 22.5 8.4375H7.5C7.25136 8.4375 7.0129 8.53627 6.83709 8.71209C6.66127 8.8879 6.5625 9.12636 6.5625 9.375V20.625C6.5624 20.8329 6.63141 21.035 6.7587 21.1994C6.88598 21.3638 7.06431 21.4812 7.26562 21.5332C6.63892 22.0762 6.10703 22.7198 5.6918 23.4375H4.6875V6.5625H25.3125V23.4375Z" fill="#A0AABB"/>
</svg>
