<svg width="27" height="27" viewBox="0 0 27 27" fill="none" xmlns="http://www.w3.org/2000/svg">
<path d="M13.5 12.393C17.955 8.34301 20.25 6.264 20.25 3.63096C20.25 1.60596 18.5631 0 16.5381 0C15.377 0 14.27 0.486 13.5 1.35C12.73 0.486 11.623 0 10.382 0C8.35705 0 6.75 1.68804 6.75 3.71304C6.75 6.264 9.04501 8.34301 13.5 12.393ZM12.393 13.5C8.34301 9.04501 6.264 6.75 3.63096 6.75C1.60596 6.75 0 8.43805 0 10.463C0 11.623 0.486 12.73 1.35 13.5C0.486 14.27 0 15.377 0 16.619C0 18.6441 1.68804 20.25 3.71304 20.25C6.264 20.25 8.34301 17.955 12.393 13.5ZM14.621 13.5C18.657 17.955 20.736 20.25 23.3691 20.25C25.3941 20.25 27 18.5631 27 16.5381C27 15.377 26.514 14.27 25.65 13.5C26.514 12.73 27 11.623 27 10.382C27 8.35705 25.3131 6.75 23.2881 6.75C20.736 6.75 18.657 9.04501 14.621 13.5ZM13.5 14.607C9.04501 18.657 6.75 20.736 6.75 23.368C6.75 25.393 8.43805 27 10.463 27C11.623 27 12.73 26.514 13.5 25.65C14.27 26.514 15.377 27 16.619 27C18.6441 27 20.25 25.312 20.25 23.287C20.25 20.736 17.955 18.657 13.5 14.607Z" fill="#814FFF" fill-opacity="0.15"/>
</svg>
