<svg width="25" height="21" viewBox="0 0 25 21" fill="none" xmlns="http://www.w3.org/2000/svg">
<path d="M22.9091 0H1.90909C1.40277 0 0.917184 0.201136 0.55916 0.55916C0.201136 0.917184 0 1.40277 0 1.90909V19.0909C0 19.5972 0.201136 20.0828 0.55916 20.4408C0.917184 20.7989 1.40277 21 1.90909 21H22.9091C23.4154 21 23.901 20.7989 24.259 20.4408C24.617 20.0828 24.8182 19.5972 24.8182 19.0909V1.90909C24.8182 1.40277 24.617 0.917184 24.259 0.55916C23.901 0.201136 23.4154 0 22.9091 0ZM21.5107 13.8743C20.6191 14.7659 19.411 15.2685 18.1501 15.2723C16.8892 15.2761 15.678 14.7808 14.7811 13.8946L8.74483 8.51216L8.71023 8.47159C8.30935 8.0721 7.79908 7.80035 7.24386 7.69066C6.68864 7.58097 6.11337 7.63826 5.59069 7.8553C5.068 8.07233 4.62135 8.43938 4.30713 8.91008C3.99291 9.38079 3.82521 9.93405 3.82521 10.5C3.82521 11.066 3.99291 11.6192 4.30713 12.0899C4.62135 12.5606 5.068 12.9277 5.59069 13.1447C6.11337 13.3617 6.68864 13.419 7.24386 13.3093C7.79908 13.1996 8.30935 12.9279 8.71023 12.5284C8.75318 12.4855 8.79494 12.4413 8.82955 12.3972C8.91259 12.3031 9.01334 12.2264 9.12604 12.1713C9.23875 12.1163 9.36119 12.0839 9.4864 12.0762C9.6116 12.0684 9.7371 12.0854 9.85574 12.1261C9.97438 12.1669 10.0838 12.2306 10.1778 12.3136C10.2719 12.3967 10.3486 12.4974 10.4037 12.6101C10.4587 12.7228 10.4911 12.8453 10.4988 12.9705C10.5066 13.0957 10.4896 13.2212 10.4489 13.3398C10.4081 13.4585 10.3444 13.5679 10.2614 13.6619C10.1957 13.7359 10.1265 13.8087 10.0573 13.8779C9.39076 14.5446 8.54166 14.999 7.61714 15.1838C6.69262 15.3685 5.7341 15.2752 4.86251 14.9158C3.99092 14.5564 3.24531 13.9469 2.71973 13.1642C2.19416 12.3814 1.91217 11.4606 1.90934 10.5178C1.90652 9.57504 2.18298 8.65253 2.70386 7.86669C3.22473 7.08084 3.96668 6.46687 4.8361 6.10223C5.70552 5.73758 6.66346 5.6386 7.58907 5.81777C8.51468 5.99694 9.3665 6.44624 10.037 7.10898L16.0722 12.4914L16.1115 12.5284C16.5128 12.9275 17.0233 13.1988 17.5786 13.308C18.1339 13.4172 18.7091 13.3594 19.2316 13.1419C19.7541 12.9245 20.2004 12.557 20.5142 12.086C20.828 11.615 20.9953 11.0616 20.9948 10.4957C20.9943 9.92974 20.8261 9.37663 20.5114 8.9062C20.1968 8.43577 19.7498 8.06912 19.227 7.85255C18.7041 7.63597 18.1288 7.57919 17.5736 7.68937C17.0185 7.79955 16.5085 8.07175 16.108 8.47159C16.065 8.51455 16.0244 8.5575 15.9886 8.60284C15.8211 8.79271 15.585 8.90824 15.3322 8.92402C15.0795 8.93979 14.8308 8.85452 14.6409 8.68696C14.4511 8.5194 14.3355 8.28328 14.3198 8.03053C14.304 7.77779 14.3893 7.52913 14.5568 7.33926C14.6212 7.26528 14.6905 7.19131 14.7609 7.1221C15.6592 6.2435 16.8678 5.75462 18.1243 5.76154C19.3808 5.76846 20.5839 6.27062 21.4725 7.15906C22.3611 8.0475 22.8635 9.25053 22.8707 10.5071C22.8778 11.7636 22.3891 12.9723 21.5107 13.8707V13.8743Z" fill="#A0AABB"/>
</svg>
