<svg width="29" height="21" viewBox="0 0 29 21" fill="none" xmlns="http://www.w3.org/2000/svg">
<path d="M28.628 10.0848C28.4109 4.4792 23.7527 0 18.1435 0C16.1923 0.000305364 14.2797 0.543686 12.6197 1.56931C10.9598 2.59494 9.61812 4.06233 8.74483 5.80722C8.01902 7.25379 7.63953 8.84933 7.63636 10.4678C7.6401 10.7137 7.55086 10.952 7.38649 11.1349C7.22212 11.3179 6.99474 11.432 6.74983 11.4545C6.61888 11.4639 6.4874 11.4461 6.36362 11.4024C6.23984 11.3586 6.12642 11.2898 6.03045 11.2002C5.93448 11.1106 5.85802 11.0022 5.80586 10.8817C5.75369 10.7612 5.72694 10.6313 5.72727 10.5C5.72626 9.16487 5.94144 7.83839 6.36443 6.57205C6.3923 6.49085 6.39775 6.40364 6.38022 6.3196C6.36268 6.23556 6.3228 6.15781 6.26478 6.09454C6.20676 6.03126 6.13274 5.98481 6.05054 5.96007C5.96833 5.93534 5.88097 5.93323 5.79767 5.95398C4.14371 6.36622 2.67489 7.31924 1.62449 8.6617C0.574092 10.0042 0.00232607 11.6591 0 13.3636C0 17.5624 3.54972 21 7.75568 21H18.1364C19.5498 20.9985 20.9483 20.7119 22.2484 20.1574C23.5485 19.603 24.7234 18.792 25.7029 17.773C26.6823 16.754 27.4462 15.5479 27.9488 14.2269C28.4514 12.9059 28.6824 11.4971 28.628 10.0848ZM22.6299 13.0844L18.8117 16.9026C18.7231 16.9914 18.6178 17.0618 18.5019 17.1098C18.386 17.1578 18.2618 17.1826 18.1364 17.1826C18.0109 17.1826 17.8867 17.1578 17.7708 17.1098C17.655 17.0618 17.5497 16.9914 17.461 16.9026L13.6428 13.0844C13.4637 12.9053 13.3631 12.6624 13.3631 12.4091C13.3631 12.1558 13.4637 11.9129 13.6428 11.7337C13.822 11.5546 14.0649 11.454 14.3182 11.454C14.5715 11.454 14.8144 11.5546 14.9935 11.7337L17.1818 13.9232V6.68182C17.1818 6.42866 17.2824 6.18586 17.4614 6.00685C17.6404 5.82784 17.8832 5.72727 18.1364 5.72727C18.3895 5.72727 18.6323 5.82784 18.8113 6.00685C18.9903 6.18586 19.0909 6.42866 19.0909 6.68182V13.9232L21.2792 11.7337C21.4583 11.5546 21.7012 11.454 21.9545 11.454C22.2078 11.454 22.4508 11.5546 22.6299 11.7337C22.809 11.9129 22.9096 12.1558 22.9096 12.4091C22.9096 12.6624 22.809 12.9053 22.6299 13.0844Z" fill="#A0AABB"/>
</svg>
