<svg width="17" height="17" viewBox="0 0 17 17" fill="none" xmlns="http://www.w3.org/2000/svg">
<path d="M8.5 0C6.81886 0 5.17547 0.498516 3.77766 1.43251C2.37984 2.3665 1.29037 3.69402 0.647028 5.24719C0.00368292 6.80036 -0.164645 8.50943 0.163329 10.1583C0.491303 11.8071 1.30085 13.3217 2.4896 14.5104C3.67834 15.6992 5.1929 16.5087 6.84174 16.8367C8.49057 17.1646 10.1996 16.9963 11.7528 16.353C13.306 15.7096 14.6335 14.6202 15.5675 13.2223C16.5015 11.8245 17 10.1811 17 8.5C16.9976 6.24639 16.1013 4.08576 14.5078 2.49222C12.9142 0.898677 10.7536 0.00237985 8.5 0ZM5.5577 5.88462C5.75167 5.88462 5.9413 5.94214 6.10258 6.0499C6.26387 6.15767 6.38958 6.31085 6.46381 6.49006C6.53804 6.66927 6.55746 6.86647 6.51962 7.05672C6.48178 7.24697 6.38837 7.42173 6.2512 7.55889C6.11404 7.69606 5.93929 7.78947 5.74903 7.82731C5.55878 7.86515 5.36158 7.84573 5.18237 7.7715C5.00316 7.69727 4.84998 7.57156 4.74222 7.41027C4.63445 7.24898 4.57693 7.05936 4.57693 6.86538C4.57693 6.60527 4.68026 6.35581 4.86419 6.17188C5.04812 5.98795 5.29758 5.88462 5.5577 5.88462ZM12.3348 10.7885C11.4938 12.2425 10.0962 13.0769 8.5 13.0769C6.9038 13.0769 5.50621 12.2433 4.6652 10.7885C4.61789 10.714 4.58612 10.6308 4.57181 10.5438C4.5575 10.4568 4.56094 10.3678 4.58192 10.2821C4.60289 10.1965 4.64098 10.116 4.69389 10.0454C4.7468 9.97486 4.81343 9.91574 4.88977 9.87161C4.96612 9.82748 5.0506 9.79925 5.13814 9.78861C5.22568 9.77798 5.31447 9.78517 5.39916 9.80974C5.48385 9.8343 5.5627 9.87575 5.63096 9.93158C5.69922 9.98742 5.75547 10.0565 5.79635 10.1346C6.40688 11.1898 7.3664 11.7692 8.5 11.7692C9.63361 11.7692 10.5931 11.1889 11.2037 10.1346C11.2445 10.0565 11.3008 9.98742 11.369 9.93158C11.4373 9.87575 11.5162 9.8343 11.6008 9.80974C11.6855 9.78517 11.7743 9.77798 11.8619 9.78861C11.9494 9.79925 12.0339 9.82748 12.1102 9.87161C12.1866 9.91574 12.2532 9.97486 12.3061 10.0454C12.359 10.116 12.3971 10.1965 12.4181 10.2821C12.4391 10.3678 12.4425 10.4568 12.4282 10.5438C12.4139 10.6308 12.3821 10.714 12.3348 10.7885ZM11.4423 7.84615C11.2483 7.84615 11.0587 7.78863 10.8974 7.68086C10.7361 7.5731 10.6104 7.41992 10.5362 7.24071C10.462 7.0615 10.4425 6.8643 10.4804 6.67405C10.5182 6.4838 10.6116 6.30904 10.7488 6.17188C10.886 6.03471 11.0607 5.9413 11.251 5.90346C11.4412 5.86562 11.6384 5.88504 11.8176 5.95927C11.9968 6.0335 12.15 6.15921 12.2578 6.3205C12.3656 6.48179 12.4231 6.67141 12.4231 6.86538C12.4231 7.1255 12.3197 7.37496 12.1358 7.55889C11.9519 7.74282 11.7024 7.84615 11.4423 7.84615Z" fill="#814FFF"/>
</svg>
