<svg width="24" height="24" viewBox="0 0 24 24" fill="none" xmlns="http://www.w3.org/2000/svg">
<path d="M21.5307 7.28055L9.53068 19.2806C9.46102 19.3503 9.3783 19.4056 9.28726 19.4433C9.19621 19.4811 9.09861 19.5005 9.00005 19.5005C8.90149 19.5005 8.80389 19.4811 8.71285 19.4433C8.6218 19.4056 8.53908 19.3503 8.46943 19.2806L3.21943 14.0306C3.0787 13.8898 2.99963 13.699 2.99963 13.4999C2.99963 13.3009 3.0787 13.11 3.21943 12.9693C3.36016 12.8286 3.55103 12.7495 3.75005 12.7495C3.94907 12.7495 4.13995 12.8286 4.28068 12.9693L9.00005 17.6896L20.4694 6.2193C20.6102 6.07857 20.801 5.99951 21.0001 5.99951C21.1991 5.99951 21.3899 6.07857 21.5307 6.2193C21.6714 6.36003 21.7505 6.55091 21.7505 6.74993C21.7505 6.94895 21.6714 7.13982 21.5307 7.28055Z" fill="black"/>
</svg>
