<svg width="25" height="25" viewBox="0 0 25 25" fill="none" xmlns="http://www.w3.org/2000/svg">
<path d="M12.5 11.475C16.625 7.725 18.75 5.8 18.75 3.362C18.75 1.487 17.188 0 15.313 0C14.238 0 13.213 0.45 12.5 1.25C11.787 0.45 10.762 0 9.613 0C7.738 0 6.25 1.563 6.25 3.438C6.25 5.8 8.375 7.725 12.5 11.475ZM11.475 12.5C7.725 8.375 5.8 6.25 3.362 6.25C1.487 6.25 0 7.813 0 9.688C0 10.762 0.45 11.787 1.25 12.5C0.45 13.213 0 14.238 0 15.388C0 17.263 1.563 18.75 3.438 18.75C5.8 18.75 7.725 16.625 11.475 12.5ZM13.538 12.5C17.275 16.625 19.2 18.75 21.638 18.75C23.513 18.75 25 17.188 25 15.313C25 14.238 24.55 13.213 23.75 12.5C24.55 11.787 25 10.762 25 9.613C25 7.738 23.438 6.25 21.563 6.25C19.2 6.25 17.275 8.375 13.538 12.5ZM12.5 13.525C8.375 17.275 6.25 19.2 6.25 21.637C6.25 23.512 7.813 25 9.688 25C10.762 25 11.787 24.55 12.5 23.75C13.213 24.55 14.238 25 15.388 25C17.263 25 18.75 23.437 18.75 21.562C18.75 19.2 16.625 17.275 12.5 13.525Z" fill="black"/>
</svg>
