<?xml version="1.0" encoding="UTF-8"?>
<svg id="Layer_1" data-name="Layer 1" xmlns="http://www.w3.org/2000/svg" viewBox="0 0 1000 1000">
  <defs>
    <style>
      .cls-1 {
        fill: #f62b60;
      }

      .cls-1, .cls-2, .cls-3 {
        stroke-width: 0px;
      }

      .cls-2 {
        fill: #18bfff;
      }

      .cls-3 {
        fill: #fcb300;
      }
    </style>
  </defs>
  <path class="cls-1" d="M640.67,489.6c92.96-127.87,184.43-253.78,277.63-382.22-159.66,0-314.6-.11-469.54.35-5.88,0-13.94,2.65-17.16,7.03-50.11,68.43-99.53,137.31-149.3,205.97-9.45,13.13-19.01,26.15-28.45,39.17-28.45,39.17-57.02,78.22-85.48,117.39-1.04,6.57-2.07,13.13-1.61,21.31.46.69.92,1.38,1.38,1.96,3,4.15,5.88,8.18,8.76,12.21,3.34,4.72,6.68,9.33,9.91,13.94,6.34,8.87,12.44,17.62,18.55,26.38,68.08,99.42,136.28,198.83,203.9,298.59,6.11,8.99,12.79,10.48,22.23,10.48,156.21-.23,312.41-.12,468.62-.23,5.18,0,10.25-.46,18.89-1.04-94.35-125.8-186.62-248.94-278.32-371.28ZM477.9,770.1c-5.18,0-12.56-2.42-15.21-6.22-13.13-19.01-26.38-38.02-39.4-57.14-39.51-57.14-78.68-114.39-117.85-171.53-7.95-10.6-19.7-20.5-26.26-29.61-2.42-3.11-4.03-6.34-4.61-9.45-.23-.81-.35-1.61-.35-2.53v-.92c.12-1.61.46-3.11.92-4.61.12-.81.35-1.5.69-2.3.46-1.27,1.15-2.53,1.73-3.69.69-1.27,1.38-2.53,2.19-3.69.81-1.27,1.73-2.53,2.76-3.8,1.84-2.53,4.03-5.07,6.34-7.6,5.64-6.34,11.87-12.56,16.7-19.01,16.01-21.08,30.07-42.05,44.35-62.55,4.72-6.91,9.56-13.59,14.4-20.39,37.79-52.3,76.26-104.14,115.08-155.63,3.92-5.18,11.86-10.02,18.09-10.02,78.56-.69,157.24-.46,238.8-.46-21.31,29.72-41.36,57.94-61.75,85.94-36.98,50.57-74.19,101.14-111.16,151.71-2.19,2.88-3.8,6.11-5.64,9.1-11.87,29.38-14.4,56.33-.58,83.17,27.88,39.28,55.64,77.3,83.52,115.08,16.59,22.58,33.29,45.04,50,67.51,14.05,19.01,28.11,37.9,43.89,58.98-88.36,0-172.57.12-256.66-.35Z"/>
  <path class="cls-3" d="M167.1,473.93v2.53c.23,7.37-.81,13.94-1.5,21.66.12,119.57-.11,237.88-.35,356.19,0,20.39-10.37,37.32-26.38,43.08-17.74,6.45-38.01.81-50.11-15.55-4.38-5.76-7.37-14.05-7.37-21.31-.46-239.61-.46-479.34-.23-719.06,0-23.96,19.01-41.7,42.74-41.47,24.31.35,41.36,17.86,41.36,42.51.23,110.24.35,220.26,1.84,331.42Z"/>
  <path class="cls-2" d="M557.2,530.3c-83.08,1.63-166.2,1.87-251.02,2.36-12.6-13.22-32.99-27.45-32-39.97,1.25-15.63,20.11-29.85,32.67-44.96,83.01-.08,164.72.13,248.11.33-9.08,27.02-11.63,53.99,2.24,82.25Z"/>
</svg>