<?xml version="1.0" encoding="utf-8"?>
<!-- Generator: Adobe Illustrator 28.1.0, SVG Export Plug-In . SVG Version: 6.00 Build 0)  -->
<svg version="1.1" id="Layer_1" xmlns="http://www.w3.org/2000/svg" xmlns:xlink="http://www.w3.org/1999/xlink" x="0px" y="0px"
	 viewBox="0 0 781.5 230.4" style="enable-background:new 0 0 781.5 230.4;" xml:space="preserve">
<style type="text/css">
	.st0{fill:#231F20;}
	.st1{fill:#F62B60;}
	.st2{fill:#FCB300;}
	.st3{fill:#18BFFF;}
	.st4{enable-background:new    ;}
</style>
<g>
	<g>
		<path class="st0" d="M47.5,40.1c0,11.8,0,23.5,0.1,35.3c0-0.1,0.1-0.1,0.1-0.2C47.5,63.4,47.5,51.8,47.5,40.1L47.5,40.1z M47.8,78
			L47.8,78c0.3,0.5,0.6,0.9,0.9,1.3C48.4,78.9,48.1,78.4,47.8,78L47.8,78z M154.7,42.5c-0.2-0.3-0.3-0.6-0.5-0.8
			c0.1,0.2,0.3,0.5,0.4,0.7c2.7,4.4,5.3,8.8,7.9,13.1C159.9,51.2,157.3,46.8,154.7,42.5L154.7,42.5z M506.8,118.6
			c0.4,0.8,1.2,1.2,2.5,1.2h0.2C508,119.8,507.2,119.4,506.8,118.6L506.8,118.6z M695,55.5C695,55.5,695,55.5,695,55.5
			c0.1-0.1,0.1-0.3,0.2-0.5C695.2,55.2,695.1,55.3,695,55.5L695,55.5z M695.9,53.8C695.9,53.8,696,53.7,695.9,53.8
			c0.1-0.2,0.2-0.3,0.2-0.3C696,53.6,696,53.7,695.9,53.8L695.9,53.8z"/>
		<path class="st0" d="M393,115.4c-3-5.4-6.2-10.7-9.2-16c-2.7-4.7-5.4-9.3-8.1-13.9c2.1-1,4.1-1.8,6-2.9c4.7-2.6,7.6-6.5,9.2-11.7
			c1.4-4.7,1.5-9.4,0.7-14.2c-0.8-4.3-2.6-8.4-6-11.3c-5.4-4.8-11.9-6.9-19.1-7c-10.3-0.1-20.6,0-30.8,0c-2.9,0-3.4,0.6-3.4,3.5
			v74.7c0,2.2,1,3.3,3.2,3.3h5.2c2.4,0,3.2-0.8,3.2-3.2c0-9.1,0-18.2,0-27.3v-2.1c5.8,0,11.4,0.1,17-0.1c2.1,0,3.4,0.4,4.5,2.6
			c4.3,8.1,9.3,15.8,13.5,23.9c2.3,4.4,5,7.2,10.3,6.2c0.4-0.1,0.8,0,1.2,0C393.3,119.8,394.5,118,393,115.4L393,115.4z M344,77.5
			v-29c0.5,0,1-0.1,1.6-0.1c6.3,0,12.7-0.1,19,0c4,0.1,7.8,0.9,11.1,3.6c0.2,0.2,0.4,0.3,0.6,0.5c0.1,0.1,0.2,0.2,0.3,0.3
			c0.1,0.2,0.3,0.3,0.4,0.5c0.4,0.5,0.8,1,1.1,1.6c0.2,0.3,0.3,0.5,0.4,0.8c0.4,0.8,0.8,1.6,1.1,2.4c0.1,0.4,0.1,0.8,0.2,1.2
			c0,0,0,0.1,0,0.1c0.1,0.4,0.1,0.8,0.1,1.2c0.4,3.9-0.1,7.6-2.6,11c-2.1,2.9-5.1,4.4-8.3,4.6C360.7,76.9,352.4,77.1,344,77.5
			L344,77.5z"/>
		<path class="st1" d="M97.8,76.9c9.8-13.5,19.5-26.9,29.4-40.5c-16.9,0-33.3,0-49.7,0c-0.6,0-1.5,0.3-1.8,0.7
			C70.4,44.4,65.1,51.7,59.9,59c-1,1.4-2,2.8-3,4.2c-3,4.2-6,8.3-9,12.4c-0.1,0.7-0.2,1.4-0.2,2.3c0,0.1,0.1,0.2,0.2,0.2
			c0.3,0.4,0.6,0.9,0.9,1.3c0.3,0.5,0.7,1,1,1.5c0.7,0.9,1.3,1.9,2,2.8c7.2,10.5,14.4,21.1,21.6,31.6c0.7,0.9,1.3,1.1,2.3,1.1
			c16.5,0,33.1,0,49.6,0c0.6,0,1.1-0.1,2-0.1C117.3,102.9,107.5,89.8,97.8,76.9L97.8,76.9z M80.6,106.6c-0.6,0-1.3-0.3-1.6-0.7
			c-1.4-2-2.8-4-4.2-6.1c-4.2-6.1-8.3-12.1-12.5-18.2c-0.8-1.1-2.1-2.2-2.8-3.1c-0.3-0.3-0.4-0.7-0.5-1c0-0.1,0-0.2,0-0.3v-0.1
			c0-0.2,0-0.3,0.1-0.5c0-0.1,0-0.2,0.1-0.2c0-0.1,0.1-0.3,0.2-0.4c0.1-0.1,0.2-0.3,0.2-0.4c0.1-0.1,0.2-0.3,0.3-0.4
			c0.2-0.3,0.4-0.5,0.7-0.8c0.6-0.7,1.3-1.3,1.8-2c1.7-2.2,3.2-4.4,4.7-6.6c0.5-0.7,1-1.4,1.5-2.2c4-5.5,8.1-11,12.2-16.5
			c0.4-0.5,1.3-1.1,1.9-1.1c8.3-0.1,16.7,0,25.3,0c-2.3,3.2-4.4,6.1-6.5,9.1c-3.9,5.4-7.9,10.7-11.8,16.1c-0.2,0.3-0.4,0.7-0.6,1
			c-1.3,3.1-1.5,6-0.1,8.8c2.9,4.2,5.9,8.2,8.8,12.2c1.8,2.4,3.5,4.8,5.3,7.2c1.5,2,3,4,4.7,6.2C98.4,106.6,89.5,106.6,80.6,106.6
			L80.6,106.6z"/>
		<path class="st0" d="M740.7,107.9c-2.3,4.6-6.2,7.5-10.8,9.6c-6.7,3.1-13.7,3.7-20.8,3.4c-7.6-0.3-14.9-2.1-20.9-7.1
			c-4.5-3.7-7.7-8.4-7.6-14.7c0-1.9,1-2.5,2.6-2.6c2.1-0.1,4.2-0.3,6.2,0.1c1,0.2,2.5,1.1,2.8,2c2.2,6.9,7.1,10.4,13.9,11.4
			c5.7,0.9,11.4,0.8,17-1.1c6.1-2.1,9.6-8.5,7.5-14.5c-0.6-1.6-2-3.1-3.5-4.1c-5.2-3.8-11.4-5.1-17.3-7c-7.2-2.3-14.5-4.2-20.6-8.9
			c-3.6-2.8-5.6-6.7-6.1-10.9c-0.5-4.4-0.6-8.9,1.6-13.1c3.3-6.6,8.9-10.1,15.7-12.1c5.2-1.5,10.5-1.5,15.8-1.1
			c7.7,0.6,14.6,3.6,19.7,9.6c2.7,3.2,4.4,7,4.7,11.3c0.1,1.4-1.1,2.6-2.7,2.7c-2.1,0.1-4.3,0.1-6.4,0c-1.3-0.1-2.5-0.6-2.8-2.2
			c-1.7-7-6.9-9.9-13.5-11c-3.9-0.6-7.7-0.2-11.5,0.7c-0.5,0.1-1,0.3-1.5,0.5c-0.5,0.2-0.9,0.3-1.3,0.6c-0.4,0.2-0.8,0.4-1.3,0.7
			c-2,1.3-3.5,3-4.5,5.5c0,0,0,0,0,0.1c0,0.3-0.1,0.7-0.1,1c-0.2,1.4-0.4,2.8-0.2,4.1c0.5,4.1,3.2,6.7,6.8,8.2
			c5.1,2.1,10.3,3.8,15.5,5.5c6.1,2,12.4,3.5,17.9,7.2c4.5,3.1,7.1,7.1,7.8,12.7C743.4,99.1,742.8,103.6,740.7,107.9L740.7,107.9z"
			/>
		<path class="st0" d="M476.5,113.5v2.9c0,2.8-0.7,3.4-3.5,3.4h-47.5c-2.5,0-3.3-0.7-3.3-3.3V41.2c0-2.3,0.6-2.9,3-2.9h47.1
			c2.7,0,3.4,0.7,3.4,3.3c0,1.2,0,2.5,0,3.7c0,2.3-0.8,3-3.1,3.1h-39v25.2H470c2.5,0,3,0.6,3,3.1v3.5c0,2.8-0.8,3.5-3.7,3.5
			c-9.6,0-19.1,0-28.7,0h-7.2v25.6h38.8C475.9,109.3,476.5,109.9,476.5,113.5L476.5,113.5z"/>
		<path class="st0" d="M560.7,113.5v2.9c0,2.7-0.7,3.4-3.3,3.4h-48.1c-1.3,0-2.1-0.4-2.5-1.2c-0.1-0.2-0.1-0.3-0.2-0.5
			c-0.1-0.3-0.2-0.8-0.2-1.2c0-25.3,0-50.7,0-76c0-1.8,0.9-2.5,2.6-2.5c16,0,31.9,0,47.9,0c2.2,0,3,0.8,3,3c0,1.4,0,2.8,0,4.3
			c0,2.1-0.8,2.8-3.1,2.9h-39v25.2h36.4c2.5,0,3,0.6,3,3.1c0,1-0.1,2.1,0,3.1c0.3,2.7-0.7,4-4.1,3.9c-11-0.1-22.1,0-33.2,0h-2.2
			v25.6h38.7C560.1,109.3,560.7,109.9,560.7,113.5L560.7,113.5z"/>
		<path class="st0" d="M652.6,92.8c-0.1,7.6-2.4,14.7-8.1,20.2c-4.2,4-9.3,6.4-15.1,7.2c-3.5,0.4-7.1,0.9-10.7,0.7
			c-7.5-0.3-14.5-2.2-20.2-7.4c-4-3.6-6.3-8.4-7.6-13.7c-1.4-5.4-1.2-10.9-1.2-16.4V41.8c0-2.8,0.6-3.5,3.5-3.5h5.2
			c2.3,0,3,0.6,3,2.9c0,16.2-0.1,32.3,0,48.5c0,5.4,1.3,10.6,4.8,14.8c2.3,2.8,5.4,4.4,9,5.3c2.8,0.6,5.6,0.9,8.4,0.6
			c0.7-0.1,1.5-0.2,2.2-0.3c0.5-0.1,1.1-0.2,1.7-0.4c5.6-1.4,9.2-4.6,11.2-8.9c0.7-1.4,1.2-3,1.5-4.7c0.7-3.4,0.8-7,0.8-10.5
			c0.1-14.5,0-29.1,0-43.6c0-3.3,0.5-3.7,3.8-3.7h5.4c1.7,0,2.4,0.8,2.4,2.5C652.7,58.1,652.9,75.5,652.6,92.8L652.6,92.8z"/>
		<path class="st0" d="M299.1,93c-0.1,7.5-2.5,14.6-8,20c-4.2,4.1-9.4,6.5-15.2,7.2c-3.5,0.4-7,0.8-10.5,0.7
			c-7.8-0.3-15-2.4-20.7-7.9c-3.8-3.6-6.1-8.2-7-13.3c-0.7-3.5-1.1-7.2-1.2-10.8c-0.1-15.7-0.1-31.4-0.1-47.1c0-2.9,0.6-3.5,3.4-3.5
			h5.4c2.1,0,2.8,0.7,2.8,2.9c0,16.1-0.1,32.3,0.1,48.5c0,5.4,1.2,10.6,4.8,14.8c2.4,2.9,5.6,4.7,9.3,5.4c5.5,1.1,10.8,1,15.9-1.7
			c5.1-2.6,7.6-7,8.8-12.3c0.1-0.3,0.1-0.6,0.2-0.9c0.2-0.9,0.3-1.9,0.5-3c0-8.4,0.1-16.8,0.1-25.1c0-8.4,0-16.7,0-25.1
			c0-3,0.5-3.5,3.6-3.5c1.8,0,3.6,0,5.4,0c1.9,0,2.6,0.8,2.6,2.7C299.2,58.3,299.5,75.7,299.1,93L299.1,93z"/>
		<path class="st0" d="M209.5,42.5c-4,6.8-8.1,13.5-12,20.2c-4.2,7.1-8.3,14.2-12.4,21.3c-0.3,0.6-0.6,1.1-1,1.6
			c-2.1,2.6-2.4,5.6-2.4,8.9c0.2,7.2,0.1,14.3,0.1,21.5c0,2.7-1,3.7-3.7,3.7c-1.6,0-3.2,0-4.8,0c-2.4,0-3.5-1.1-3.5-3.5
			c0-8.2-0.1-16.3,0.1-24.4c0.1-3.2-1.8-5.2-3.2-7.5c-3.6-6.3-7.3-12.6-11-18.8c-3-5.1-6.1-10.2-9.1-15.4c-1.7-2.9-3.3-5.9-4.7-8.9
			c-0.7-1.7,0.4-2.8,2.2-2.9c1.8,0,3.6,0.2,5.4,0c2.2-0.2,3.5,0.8,4.4,2.6c0.1,0.3,0.3,0.5,0.4,0.8c0.2,0.3,0.3,0.5,0.5,0.8
			c2.6,4.4,5.2,8.7,7.8,13c4.4,7.3,8.7,14.5,13.1,21.9c2.1-3.5,4.1-6.8,6.1-10c5.4-9.1,10.9-18.2,16.4-27.2c0.6-0.9,2-1.5,3.1-1.7
			c1.8-0.3,3.8-0.1,5.6-0.1C209.7,38.3,210.9,40.2,209.5,42.5L209.5,42.5z"/>
		<path class="st2" d="M47.7,75.2v0.3c0,0.8-0.1,1.5-0.2,2.3c0,12.7,0,25.2,0,37.7c0,2.2-1.1,3.9-2.8,4.6c-1.9,0.7-4,0.1-5.3-1.7
			c-0.5-0.6-0.8-1.5-0.8-2.3c0-25.4,0-50.8,0-76.2c0-2.5,2-4.4,4.5-4.4c2.6,0,4.4,1.9,4.4,4.5C47.5,51.8,47.5,63.4,47.7,75.2
			L47.7,75.2z"/>
		<path class="st3" d="M89,81.2c-8.8,0.2-17.6,0.2-26.6,0.2c-1.3-1.4-3.5-2.9-3.4-4.2c0.1-1.7,2.1-3.2,3.5-4.8c8.8,0,17.4,0,26.3,0
			C87.8,75.3,87.5,78.2,89,81.2z"/>
	</g>
	<g class="st4">
		<path d="M66.8,185.9h-2.5c-0.5,0-0.8-0.3-0.9-0.9l-1.9-6.4h-15l-1.9,6.4c-0.2,0.6-0.4,0.9-0.9,0.9h-2.5c-0.5,0-0.7-0.3-0.6-0.9
			l10.1-34.5c0.2-0.5,0.5-0.8,1-0.8h4.6c0.5,0,0.8,0.3,0.9,0.8L67.3,185C67.5,185.6,67.2,185.9,66.8,185.9z M60.5,175.2L54.3,154
			h-0.6l-6.2,21.2H60.5z"/>
	</g>
	<g class="st4">
		<path d="M102.1,174.4l4.9,10.5c0.3,0.6-0.1,1-0.7,1h-2.3c-0.5,0-0.8-0.2-1-0.6l-4.7-10c-0.6,0.1-1.2,0.1-1.9,0.1h-9.3v9.8
			c0,0.5-0.2,0.7-0.7,0.7H84c-0.5,0-0.7-0.2-0.7-0.7v-34.8c0-0.5,0.2-0.7,0.7-0.7h12.5c7.4,0,10.6,3.4,10.6,10.3v5.1
			C107.2,169.9,105.6,173,102.1,174.4z M103.3,160c0-4.9-2.1-6.8-6.9-6.8h-9.2v18.5h9.2c4.8,0,6.9-1.9,6.9-6.8V160z"/>
	</g>
	<g class="st4">
		<path d="M122.7,186.2c-7.1,0-10.2-3.4-10.2-8.9v-8.6c0-5.6,3.3-8.9,9.2-8.9h2.4c6,0,9.2,3.2,9.2,8.8v4.3c0,1-0.6,1.6-1.7,1.6
			h-15.3v2.7c0,3.3,1.9,5.6,6.5,5.6h0.5c3.6,0,5.6-0.8,7.1-1.7c0.5-0.3,0.7-0.2,0.9,0.2l0.8,1.2c0.3,0.3,0.3,0.6,0.1,0.7
			c-1.5,1.6-4.7,3-8.9,3H122.7z M129.5,171.6v-3c0-3.4-1.8-5.3-5.4-5.3h-2.3c-3.6,0-5.4,2-5.4,5.4v2.9H129.5z"/>
		<path d="M138.1,185.2v-2.4c0-0.3,0.1-0.5,0.3-0.8l13.4-18.3v-0.3h-12.5c-0.5,0-0.7-0.2-0.7-0.7v-2.1c0-0.5,0.2-0.7,0.7-0.7h15.9
			c0.4,0,0.7,0.2,0.7,0.7v2.6c0,0.2-0.1,0.5-0.3,0.7l-13.4,18.2v0.3h12.9c0.4,0,0.7,0.2,0.7,0.7v2.1c0,0.5-0.3,0.7-0.7,0.7h-16.5
			C138.3,185.9,138.1,185.7,138.1,185.2z"/>
		<path d="M161.4,152.7v-2.4c0-0.5,0.2-0.7,0.7-0.7h2.5c0.5,0,0.7,0.2,0.7,0.7v2.4c0,0.5-0.2,0.7-0.7,0.7h-2.5
			C161.6,153.4,161.4,153.2,161.4,152.7z M161.5,185.2v-24.5c0-0.5,0.2-0.7,0.6-0.7h2.5c0.5,0,0.6,0.2,0.6,0.7v24.5
			c0,0.5-0.2,0.7-0.6,0.7h-2.5C161.6,185.9,161.5,185.7,161.5,185.2z"/>
	</g>
	<g class="st4">
		<path d="M171.9,185.2v-34.9c0-0.5,0.2-0.7,0.7-0.7h2.4c0.5,0,0.7,0.2,0.7,0.7v34.9c0,0.5-0.2,0.7-0.7,0.7h-2.4
			C172,185.9,171.9,185.7,171.9,185.2z"/>
	</g>
	<g class="st4">
		<path d="M203.7,160.8L191,194.3c-0.2,0.4-0.3,0.8-0.8,0.8h-2.5c-0.5,0-0.7-0.4-0.5-0.8l3-7.9l-9.7-25.6c-0.2-0.5-0.1-0.8,0.5-0.8
			h2.6c0.5,0,0.6,0.3,0.8,0.8l7.6,20.6h0.3l7.5-20.6c0.2-0.6,0.4-0.8,0.9-0.8h2.6C203.7,160,203.9,160.3,203.7,160.8z"/>
	</g>
	<g class="st4">
		<path d="M217.7,186.2c-7.1,0-10.2-3.4-10.2-8.9v-8.6c0-5.6,3.3-8.9,9.2-8.9h2.4c6,0,9.2,3.2,9.2,8.8v4.3c0,1-0.6,1.6-1.7,1.6
			h-15.3v2.7c0,3.3,1.9,5.6,6.5,5.6h0.5c3.6,0,5.6-0.8,7.1-1.7c0.5-0.3,0.7-0.2,0.9,0.2l0.8,1.2c0.3,0.3,0.3,0.6,0.1,0.7
			c-1.5,1.6-4.7,3-8.9,3H217.7z M224.4,171.6v-3c0-3.4-1.8-5.3-5.4-5.3h-2.3c-3.6,0-5.4,2-5.4,5.4v2.9H224.4z"/>
		<path d="M234.3,185.2v-24.5c0-0.5,0.2-0.7,0.7-0.7h2.4c0.5,0,0.7,0.2,0.7,0.7v2.2h0.6c1.3-1.9,3.6-3.1,6.7-3.1h1.5
			c6,0,8.4,3,8.4,8.8v16.7c0,0.5-0.2,0.7-0.6,0.7h-2.5c-0.5,0-0.6-0.2-0.6-0.7v-16.4c0-3.6-1.7-5.6-5.5-5.6h-2c-3.8,0-6,2-6,5.5
			v16.4c0,0.5-0.2,0.7-0.7,0.7H235C234.5,185.9,234.3,185.7,234.3,185.2z"/>
		<path d="M261.1,179.6c0-0.5,0.2-0.8,0.7-0.8h2.4c0.5,0,0.6,0.3,0.7,0.7c0.3,2.3,1.8,3.4,5,3.4h2.1c3.2,0,5.3-1.1,5.3-4.1
			c0-3.2-2.4-3.7-6.2-4.1l-1.2-0.1c-5.7-0.6-8.6-2.3-8.6-7.4c0-5.2,3.4-7.2,8.6-7.2h2c5.1,0,8.5,2.4,8.5,7.2c0,0.5-0.2,0.7-0.7,0.7
			h-2.1c-0.6,0-0.8-0.2-0.9-0.8c-0.3-2.6-1.8-3.9-5-3.9H270c-3.2,0-5,1-5,3.9c0,3,1.9,3.9,5.6,4.3l1.2,0.1c5.7,0.6,9.1,1.9,9.1,7.2
			c0,5.6-3.7,7.5-9,7.5h-2.2C264.4,186.2,261.1,184.1,261.1,179.6z"/>
		<path d="M297.5,175.7v-15.8c0-6.8,3.5-10.5,10.8-10.5h3.5c7.4,0,10.7,3.5,10.7,10.1v0.2c0,0.4-0.3,0.6-0.6,0.6h-2.7
			c-0.4,0-0.6-0.2-0.6-0.6c0-4.9-2.4-6.8-7-6.8h-3.2c-4.8,0-7.1,2.1-7.1,6.9v15.7c0,4.9,2.3,7,7.1,7h3.2c4.6,0,7-1.8,7-6.4
			c0-0.4,0.2-0.6,0.6-0.6h2.7c0.4,0,0.6,0.3,0.6,0.6v0.3c0,6.3-3.3,9.7-10.7,9.7h-3.5C300.9,186.2,297.5,182.5,297.5,175.7z"/>
		<path d="M328.3,177.4v-8.8c0-5.5,3.2-8.8,9.2-8.8h2.6c6,0,9.1,3.2,9.1,8.8v8.8c0,5.6-3.2,8.8-9.1,8.8h-2.6
			C331.5,186.2,328.3,183,328.3,177.4z M340,182.7c3.6,0,5.5-1.9,5.5-5.4v-8.6c0-3.5-1.9-5.4-5.5-5.4h-2.5c-3.6,0-5.4,1.9-5.4,5.4
			v8.6c0,3.5,1.8,5.4,5.4,5.4H340z"/>
		<path d="M391.6,168.6v16.7c0,0.5-0.2,0.7-0.7,0.7h-2.4c-0.5,0-0.7-0.2-0.7-0.7v-16.4c0-3.6-1.7-5.6-5.2-5.6H381
			c-3.5,0-5.6,2-5.6,5.5v16.4c0,0.5-0.2,0.7-0.7,0.7h-2.4c-0.5,0-0.7-0.2-0.7-0.7v-16.4c0-3.6-1.7-5.6-5.2-5.6h-1.6
			c-3.5,0-5.6,2-5.6,5.5v16.4c0,0.5-0.2,0.7-0.7,0.7H356c-0.5,0-0.7-0.2-0.7-0.7v-24.5c0-0.5,0.2-0.7,0.7-0.7h2.4
			c0.5,0,0.7,0.2,0.7,0.7v2.2h0.6c1.2-2,3.6-3.1,6.7-3.1h1c3.5,0,5.8,1.2,7,3.7h0.4c1.4-2.5,4.1-3.7,7.7-3.7h1
			C389.1,159.8,391.6,162.8,391.6,168.6z"/>
	</g>
	<g class="st4">
		<path d="M419.1,168.6v8.9c0,5.7-3.1,8.8-8.8,8.8h-1.6c-3.1,0-5.2-1.2-6.4-3.1H402v11.3c0,0.5-0.2,0.7-0.7,0.7h-2.4
			c-0.5,0-0.7-0.2-0.7-0.7v-33.7c0-0.5,0.2-0.7,0.7-0.7h2.4c0.5,0,0.7,0.2,0.7,0.7v2.1h0.4c1.2-1.9,3.3-3,6.4-3h1.6
			C416.1,159.8,419.1,162.8,419.1,168.6z M415.4,168.8c0-3.6-1.9-5.5-5.6-5.5h-2.3c-3.6,0-5.5,2-5.5,5.5v8.4c0,3.5,1.9,5.5,5.5,5.5
			h2.3c3.7,0,5.6-2,5.6-5.6V168.8z"/>
	</g>
	<g class="st4">
		<path d="M445.1,168.4v16.9c0,0.5-0.2,0.7-0.7,0.7H442c-0.5,0-0.7-0.2-0.7-0.7V182h-0.5c-1.8,2.3-4.5,4.1-8.4,4.1h-0.3
			c-5.5,0-7.9-2.8-7.9-7.6v-1.3c0-4.7,2.9-6.5,8-6.5h9.2v-2.1c0-3.5-1.3-5.4-6.7-5.4c-2.6,0-5.1,0.3-6.8,0.9
			c-0.4,0.1-0.7-0.1-0.7-0.4l-0.4-2c-0.1-0.4,0.1-0.6,0.4-0.7c1.6-0.6,4.5-1.2,7.9-1.2h1C442.4,159.8,445.1,162.9,445.1,168.4z
			 M441.3,176.9v-3.2h-8.8c-3,0-4.7,0.8-4.7,3.8v0.9c0,3.2,1.7,4.4,4.7,4.4h1.8C438.3,182.8,441.3,179.8,441.3,176.9z"/>
	</g>
	<g class="st4">
		<path d="M451.7,185.2v-24.5c0-0.5,0.2-0.7,0.7-0.7h2.4c0.5,0,0.7,0.2,0.7,0.7v2.2h0.6c1.3-1.9,3.6-3.1,6.7-3.1h1.5
			c6,0,8.4,3,8.4,8.8v16.7c0,0.5-0.2,0.7-0.6,0.7h-2.5c-0.5,0-0.6-0.2-0.6-0.7v-16.4c0-3.6-1.7-5.6-5.5-5.6h-2c-3.8,0-6,2-6,5.5
			v16.4c0,0.5-0.2,0.7-0.7,0.7h-2.4C451.8,185.9,451.7,185.7,451.7,185.2z"/>
	</g>
	<g class="st4">
		<path d="M499.9,160.8l-12.7,33.5c-0.2,0.4-0.3,0.8-0.8,0.8h-2.5c-0.5,0-0.7-0.4-0.5-0.8l3-7.9l-9.7-25.6c-0.2-0.5-0.1-0.8,0.5-0.8
			h2.6c0.5,0,0.6,0.3,0.8,0.8l7.6,20.6h0.3l7.5-20.6c0.2-0.6,0.4-0.8,0.9-0.8h2.6C499.9,160,500.1,160.3,499.9,160.8z"/>
	</g>
</g>
</svg>
